<?xml version="1.0" encoding="UTF-8"?>
<!DOCTYPE svg PUBLIC "-//W3C//DTD SVG 1.1//EN" "http://www.w3.org/Graphics/SVG/1.1/DTD/svg11.dtd">
<svg xmlns="http://www.w3.org/2000/svg" version="1.1" width="512px" height="512px" style="shape-rendering:geometricPrecision; text-rendering:geometricPrecision; image-rendering:optimizeQuality; fill-rule:evenodd; clip-rule:evenodd" xmlns:xlink="http://www.w3.org/1999/xlink">
<g><path style="opacity:0.016" fill="#fefffe" d="M -0.5,0.5 C 170.167,0.5 340.833,0.5 511.5,0.5C 511.5,1.16667 511.5,1.83333 511.5,2.5C 340.833,2.5 170.167,2.5 -0.5,2.5C -0.5,1.83333 -0.5,1.16667 -0.5,0.5 Z"/></g>
<g><path style="opacity:1" fill="#fcfaf1" d="M -0.5,4.5 C 170.167,4.5 340.833,4.5 511.5,4.5C 511.5,5.5 511.5,6.5 511.5,7.5C 340.833,7.5 170.167,7.5 -0.5,7.5C -0.5,6.5 -0.5,5.5 -0.5,4.5 Z"/></g>
<g><path style="opacity:1" fill="#f6f1e8" d="M -0.5,7.5 C 170.167,7.5 340.833,7.5 511.5,7.5C 511.5,137.167 511.5,266.833 511.5,396.5C 340.833,396.5 170.167,396.5 -0.5,396.5C -0.5,266.833 -0.5,137.167 -0.5,7.5 Z"/></g>
<g><path style="opacity:1" fill="#65717b" d="M 249.5,42.5 C 247.65,44.5716 245.317,45.9049 242.5,46.5C 243.348,44.9069 244.681,43.7403 246.5,43C 247.448,42.5172 248.448,42.3505 249.5,42.5 Z"/></g>
<g><path style="opacity:1" fill="#1c3645" d="M 280.5,53.5 C 281.899,54.8897 283.566,55.8897 285.5,56.5C 307.378,70.3763 325.712,88.043 340.5,109.5C 340.427,111.027 341.094,112.027 342.5,112.5C 344.127,114.63 345.96,116.63 348,118.5C 349.559,120.217 350.392,122.217 350.5,124.5C 351.959,124.567 353.292,124.234 354.5,123.5C 353.665,124.943 352.332,125.943 350.5,126.5C 353.948,128.283 353.948,130.45 350.5,133C 352.79,133.79 353.123,135.124 351.5,137C 352,138.5 352.5,140 353,141.5C 355.9,142.737 358.4,144.404 360.5,146.5C 358.211,152.17 357.211,158.17 357.5,164.5C 356.834,161.642 356.167,158.642 355.5,155.5C 354.675,159.122 354.175,162.789 354,166.5C 353.581,165.328 352.915,164.328 352,163.5C 351.873,160.396 351.707,157.396 351.5,154.5C 352.325,153.614 353.325,153.281 354.5,153.5C 354.5,152.5 354.5,151.5 354.5,150.5C 353.5,150.5 352.5,150.5 351.5,150.5C 351.5,149.167 351.5,147.833 351.5,146.5C 356.322,146.439 356.655,145.273 352.5,143C 348.831,142.788 345.997,144.288 344,147.5C 343.902,150.522 343.068,153.189 341.5,155.5C 339.972,154.198 338.972,152.531 338.5,150.5C 336.971,142.666 334.804,134.999 332,127.5C 322.147,112.477 310.647,98.8107 297.5,86.5C 296.415,84.4131 294.749,83.0798 292.5,82.5C 284.768,77.0748 277.101,71.7415 269.5,66.5C 266.053,63.5623 262.053,61.5623 257.5,60.5C 256.749,59.4265 255.749,59.2599 254.5,60C 251.593,61.6091 248.927,63.4424 246.5,65.5C 239.059,69.4354 232.059,74.1021 225.5,79.5C 222.802,79.8449 220.802,81.1782 219.5,83.5C 207.597,92.2807 197.263,102.614 188.5,114.5C 186.178,115.802 184.845,117.802 184.5,120.5C 183.833,120.5 183.5,120.833 183.5,121.5C 181.057,124.052 179.39,127.052 178.5,130.5C 176.065,134.129 174.398,138.129 173.5,142.5C 172.883,142.611 172.383,142.944 172,143.5C 171.501,147.486 171.334,151.486 171.5,155.5C 170.523,158.287 170.19,161.287 170.5,164.5C 170.5,221.5 170.5,278.5 170.5,335.5C 169.833,275.665 169.167,215.665 168.5,155.5C 167.833,169.5 167.167,183.5 166.5,197.5C 165.585,196.672 164.919,195.672 164.5,194.5C 168.028,188.235 166.862,186.235 161,188.5C 160.167,188.167 159.333,187.833 158.5,187.5C 159.5,186.833 160.5,186.167 161.5,185.5C 158.896,182.433 159.562,181.433 163.5,182.5C 164.5,179.167 165.5,175.834 166.5,172.5C 165.982,170.1 164.815,168.1 163,166.5C 163.783,168.345 164.116,170.345 164,172.5C 162.36,175.973 159.86,178.64 156.5,180.5C 157.428,181.768 157.595,183.101 157,184.5C 156.237,181.937 155.737,181.937 155.5,184.5C 155.818,185.647 156.484,186.481 157.5,187C 156.552,187.483 155.552,187.649 154.5,187.5C 154.667,175.162 154.5,162.829 154,150.5C 153.617,151.056 153.117,151.389 152.5,151.5C 152.5,150.833 152.167,150.5 151.5,150.5C 149.974,145.471 146.974,141.471 142.5,138.5C 139.537,134.738 135.537,133.072 130.5,133.5C 128.113,133.088 126.113,132.088 124.5,130.5C 118.818,127.833 112.818,125.833 106.5,124.5C 100.674,123.333 95.0077,121.667 89.5,119.5C 89.189,118.522 88.5223,117.855 87.5,117.5C 86.1685,177.999 86.1685,238.332 87.5,298.5C 89.3129,301.647 91.9796,303.647 95.5,304.5C 95.9731,305.906 96.9731,306.573 98.5,306.5C 98.8333,306.5 99.1667,306.5 99.5,306.5C 101.033,308.245 103.033,309.245 105.5,309.5C 106.78,310.931 108.447,311.598 110.5,311.5C 114.382,314.25 118.716,316.25 123.5,317.5C 124.635,319.213 126.302,319.88 128.5,319.5C 132.46,321.816 136.46,324.15 140.5,326.5C 142.975,329.241 145.975,331.241 149.5,332.5C 150.209,333.404 151.209,333.737 152.5,333.5C 151.737,334.268 150.737,334.768 149.5,335C 151.054,337.675 152.387,340.508 153.5,343.5C 151.016,344.894 151.016,346.394 153.5,348C 151.609,349.957 150.442,352.124 150,354.5C 151.688,352.152 153.522,351.985 155.5,354C 154.095,355.269 152.429,355.769 150.5,355.5C 150.371,357.216 150.038,358.883 149.5,360.5C 148.527,358.861 147.194,357.527 145.5,356.5C 144.833,353.833 143.167,352.167 140.5,351.5C 131.799,344.485 122.465,338.485 112.5,333.5C 107.496,330.27 102.163,327.603 96.5,325.5C 93.4517,323.643 90.1183,322.476 86.5,322C 85.0577,321.623 84.0577,320.79 83.5,319.5C 80.323,317.18 76.6564,315.846 72.5,315.5C 71.209,315.737 70.209,315.404 69.5,314.5C 76.1667,313.833 76.1667,313.167 69.5,312.5C 69.6667,264.832 69.5,217.166 69,169.5C 68.6174,170.056 68.1174,170.389 67.5,170.5C 67.5,152.833 67.5,135.167 67.5,117.5C 69.2704,108.398 69.9371,99.0651 69.5,89.5C 70.1667,89.5 70.8333,89.5 71.5,89.5C 74.3435,91.1724 77.3435,92.5057 80.5,93.5C 81.8021,95.8218 83.8021,97.1551 86.5,97.5C 90.1884,100.843 94.5217,102.843 99.5,103.5C 103.873,105.767 108.54,107.434 113.5,108.5C 114.635,110.213 116.302,110.88 118.5,110.5C 120.117,111.038 121.784,111.371 123.5,111.5C 126.714,113.823 130.38,115.156 134.5,115.5C 138.39,117.054 142.39,118.387 146.5,119.5C 148.916,121.013 151.583,122.346 154.5,123.5C 156.354,124.506 158.021,124.506 159.5,123.5C 161.531,122.461 162.864,120.795 163.5,118.5C 163.833,117.833 164.167,117.167 164.5,116.5C 167.647,114.687 169.647,112.02 170.5,108.5C 172.372,105.418 174.705,102.751 177.5,100.5C 178.906,100.027 179.573,99.0269 179.5,97.5C 182.652,96.2209 184.652,93.8875 185.5,90.5C 193.546,81.1201 202.546,72.7867 212.5,65.5C 215.542,63.1476 218.876,61.1476 222.5,59.5C 223.193,58.4822 223.859,57.4822 224.5,56.5C 224.842,55.6618 225.508,55.3284 226.5,55.5C 229.701,54.6214 232.368,52.9547 234.5,50.5C 236.926,48.6205 239.592,47.2872 242.5,46.5C 245.317,45.9049 247.65,44.5716 249.5,42.5C 251.308,41.6059 253.142,40.6059 255,39.5C 263.612,44.0821 272.112,48.7487 280.5,53.5 Z"/></g>
<g><path style="opacity:1" fill="#67737c" d="M 234.5,50.5 C 232.368,52.9547 229.701,54.6214 226.5,55.5C 228.582,53.1204 231.249,51.4538 234.5,50.5 Z"/></g>
<g><path style="opacity:1" fill="#b9bcbe" d="M 280.5,53.5 C 282.989,53.2407 284.656,54.2407 285.5,56.5C 283.566,55.8897 281.899,54.8897 280.5,53.5 Z"/></g>
<g><path style="opacity:1" fill="#959ca1" d="M 257.5,60.5 C 257.5,60.8333 257.5,61.1667 257.5,61.5C 253.73,62.5517 250.063,63.8851 246.5,65.5C 248.927,63.4424 251.593,61.6091 254.5,60C 255.749,59.2599 256.749,59.4265 257.5,60.5 Z"/></g>
<g><path style="opacity:1" fill="#5a6871" d="M 257.5,61.5 C 257.5,61.1667 257.5,60.8333 257.5,60.5C 262.053,61.5623 266.053,63.5623 269.5,66.5C 265.501,64.8361 261.501,63.1694 257.5,61.5 Z"/></g>
<g><path style="opacity:1" fill="#55636e" d="M 224.5,56.5 C 223.859,57.4822 223.193,58.4822 222.5,59.5C 218.876,61.1476 215.542,63.1476 212.5,65.5C 215.776,61.5293 219.776,58.5293 224.5,56.5 Z"/></g>
<g><path style="opacity:1" fill="#edeae3" d="M 257.5,61.5 C 261.501,63.1694 265.501,64.8361 269.5,66.5C 277.101,71.7415 284.768,77.0748 292.5,82.5C 293.585,84.5869 295.251,85.9202 297.5,86.5C 310.647,98.8107 322.147,112.477 332,127.5C 334.804,134.999 336.971,142.666 338.5,150.5C 336.64,154.462 335.307,158.795 334.5,163.5C 332.821,163.715 331.821,163.048 331.5,161.5C 332.497,161.53 333.164,161.03 333.5,160C 332.95,156.676 332.283,153.509 331.5,150.5C 331.167,150.5 330.833,150.5 330.5,150.5C 331.036,147.302 330.369,144.635 328.5,142.5C 325.571,132.643 320.571,123.976 313.5,116.5C 312.92,114.251 311.587,112.585 309.5,111.5C 305.874,106.539 301.874,101.872 297.5,97.5C 296.415,95.4131 294.749,94.0798 292.5,93.5C 290.46,91.823 288.46,90.1563 286.5,88.5C 285.738,86.7376 284.404,85.7376 282.5,85.5C 281.738,83.7376 280.404,82.7376 278.5,82.5C 276.062,80.4654 273.395,78.7987 270.5,77.5C 270.027,76.0937 269.027,75.427 267.5,75.5C 266.29,75.0679 265.29,74.4013 264.5,73.5C 261.987,69.7483 258.654,68.7483 254.5,70.5C 253.209,70.2627 252.209,70.596 251.5,71.5C 248.937,72.0883 246.604,73.0883 244.5,74.5C 238.747,77.8053 233.08,81.3053 227.5,85C 225.304,86.6993 223.304,88.5327 221.5,90.5C 214.812,95.1878 209.146,100.854 204.5,107.5C 201.473,109.86 198.806,112.527 196.5,115.5C 195.88,113.023 194.88,113.023 193.5,115.5C 192.749,114.624 192.249,113.624 192,112.5C 190.961,113.71 189.794,114.71 188.5,115.5C 188.5,115.167 188.5,114.833 188.5,114.5C 197.263,102.614 207.597,92.2807 219.5,83.5C 221.853,82.6597 223.853,81.3264 225.5,79.5C 232.059,74.1021 239.059,69.4354 246.5,65.5C 250.063,63.8851 253.73,62.5517 257.5,61.5 Z"/></g>
<g><path style="opacity:1" fill="#aab0b3" d="M 254.5,70.5 C 258.654,68.7483 261.987,69.7483 264.5,73.5C 261.49,71.506 258.157,70.506 254.5,70.5 Z"/></g>
<g><path style="opacity:1" fill="#66727b" d="M 251.5,71.5 C 249.815,73.8176 247.481,74.8176 244.5,74.5C 246.604,73.0883 248.937,72.0883 251.5,71.5 Z"/></g>
<g><path style="opacity:1" fill="#8f969b" d="M 267.5,75.5 C 269.027,75.427 270.027,76.0937 270.5,77.5C 268.973,77.573 267.973,76.9063 267.5,75.5 Z"/></g>
<g><path style="opacity:1" fill="#9ea5a9" d="M 225.5,79.5 C 223.853,81.3264 221.853,82.6597 219.5,83.5C 220.802,81.1782 222.802,79.8449 225.5,79.5 Z"/></g>
<g><path style="opacity:1" fill="#f5f0e7" d="M 259.5,81.5 C 261.033,83.2451 263.033,84.2451 265.5,84.5C 277.428,92.6467 288.428,101.98 298.5,112.5C 299.419,115.089 301.086,117.089 303.5,118.5C 307.599,122.263 310.933,126.596 313.5,131.5C 313.427,133.027 314.094,134.027 315.5,134.5C 315.5,135.167 315.833,135.5 316.5,135.5C 316.942,138.343 317.942,141.009 319.5,143.5C 319.957,144.298 320.624,144.631 321.5,144.5C 324.866,148.926 327.866,153.593 330.5,158.5C 331.11,159.391 331.443,160.391 331.5,161.5C 331.821,163.048 332.821,163.715 334.5,163.5C 335.307,158.795 336.64,154.462 338.5,150.5C 338.194,153.385 338.527,156.052 339.5,158.5C 339.667,221.168 339.5,283.834 339,346.5C 336.959,345.577 334.792,345.244 332.5,345.5C 324.07,343.309 315.736,341.309 307.5,339.5C 305.26,338.736 302.927,337.902 300.5,337C 294.396,336.327 288.396,335.494 282.5,334.5C 281.833,334.5 281.167,334.5 280.5,334.5C 278.167,333.833 275.833,333.167 273.5,332.5C 271.723,331.4 269.723,330.566 267.5,330C 275.189,329.353 282.856,329.52 290.5,330.5C 292.167,330.5 293.833,330.5 295.5,330.5C 297.415,330.216 299.081,330.549 300.5,331.5C 302.834,332.124 305.167,332.957 307.5,334C 310.146,334.497 312.813,334.664 315.5,334.5C 321.23,336.376 327.23,337.376 333.5,337.5C 333.662,335.473 333.495,333.473 333,331.5C 332.617,330.944 332.117,330.611 331.5,330.5C 330.486,329.326 329.153,328.66 327.5,328.5C 326.07,327.463 324.403,326.796 322.5,326.5C 319.646,324.271 316.313,322.938 312.5,322.5C 310.833,322.5 309.167,322.5 307.5,322.5C 306.01,320.72 304.01,320.054 301.5,320.5C 299.898,318.926 297.898,318.259 295.5,318.5C 294.5,318.5 293.5,318.5 292.5,318.5C 292.082,317.778 291.416,317.278 290.5,317C 285.845,316.501 281.179,316.334 276.5,316.5C 274.393,315.532 272.059,315.198 269.5,315.5C 258.341,314.341 247.008,314.174 235.5,315C 234.584,315.278 233.918,315.778 233.5,316.5C 229.818,316.335 226.152,316.501 222.5,317C 221.263,317.232 220.263,317.732 219.5,318.5C 217.143,318.337 214.81,318.503 212.5,319C 211.944,319.383 211.611,319.883 211.5,320.5C 207.341,321.742 203.007,322.575 198.5,323C 197.944,323.383 197.611,323.883 197.5,324.5C 195.435,324.517 193.435,324.85 191.5,325.5C 187.058,325.732 183.058,327.065 179.5,329.5C 178.527,331.948 178.194,334.615 178.5,337.5C 181.5,337.5 184.5,337.5 187.5,337.5C 189.126,337.062 190.793,336.728 192.5,336.5C 194.376,336.849 195.876,337.516 197,338.5C 199.241,338.32 199.741,337.487 198.5,336C 201.374,335.058 204.04,333.891 206.5,332.5C 210.162,332.277 213.495,331.277 216.5,329.5C 217.833,329.5 219.167,329.5 220.5,329.5C 223.167,329.167 225.833,328.833 228.5,328.5C 228.082,329.222 227.416,329.722 226.5,330C 230.821,330.499 235.154,330.666 239.5,330.5C 237.5,331.167 235.5,331.833 233.5,332.5C 233.5,332.833 233.5,333.167 233.5,333.5C 227.667,333.723 222.001,334.723 216.5,336.5C 211.795,337.503 207.128,338.503 202.5,339.5C 199.813,339.336 197.146,339.503 194.5,340C 193.058,340.377 192.058,341.21 191.5,342.5C 187.2,342.719 183.2,343.719 179.5,345.5C 179.167,345.5 178.833,345.5 178.5,345.5C 177.817,343.824 176.483,343.157 174.5,343.5C 174.667,283.499 174.5,223.499 174,163.5C 173.027,161.608 172.36,159.608 172,157.5C 171.503,159.81 171.337,162.143 171.5,164.5C 171.167,164.5 170.833,164.5 170.5,164.5C 170.19,161.287 170.523,158.287 171.5,155.5C 172.283,151.307 172.949,146.973 173.5,142.5C 175.935,138.871 177.602,134.871 178.5,130.5C 180.943,127.948 182.61,124.948 183.5,121.5C 183.5,120.833 183.833,120.5 184.5,120.5C 186.063,119.055 187.396,117.389 188.5,115.5C 189.794,114.71 190.961,113.71 192,112.5C 192.249,113.624 192.749,114.624 193.5,115.5C 194.88,113.023 195.88,113.023 196.5,115.5C 195.559,117.772 194.226,119.772 192.5,121.5C 190,124.494 188,127.827 186.5,131.5C 184.229,133.612 182.896,136.279 182.5,139.5C 182.5,140.5 182.5,141.5 182.5,142.5C 180.692,143.918 180.025,145.918 180.5,148.5C 180.167,148.5 179.833,148.5 179.5,148.5C 178.689,152.835 178.022,157.335 177.5,162C 178.427,164.998 179.427,164.831 180.5,161.5C 183.272,159.168 184.939,156.168 185.5,152.5C 186.906,152.027 187.573,151.027 187.5,149.5C 189.897,147.338 191.564,144.671 192.5,141.5C 198.107,133.223 204.107,125.223 210.5,117.5C 215.774,113.895 220.441,109.562 224.5,104.5C 227.496,100.507 231.163,97.1739 235.5,94.5C 237.96,93.0634 240.626,92.0634 243.5,91.5C 243.5,90.5 243.5,89.5 243.5,88.5C 245.027,88.573 246.027,87.9063 246.5,86.5C 248.027,86.573 249.027,85.9063 249.5,84.5C 252.871,83.4243 256.204,82.4243 259.5,81.5 Z"/></g>
<g><path style="opacity:1" fill="#999fa4" d="M 278.5,82.5 C 280.404,82.7376 281.738,83.7376 282.5,85.5C 280.596,85.2624 279.262,84.2624 278.5,82.5 Z"/></g>
<g><path style="opacity:1" fill="#6d7881" d="M 292.5,82.5 C 294.749,83.0798 296.415,84.4131 297.5,86.5C 295.251,85.9202 293.585,84.5869 292.5,82.5 Z"/></g>
<g><path style="opacity:1" fill="#9ea4a6" d="M 282.5,85.5 C 284.404,85.7376 285.738,86.7376 286.5,88.5C 284.596,88.2624 283.262,87.2624 282.5,85.5 Z"/></g>
<g><path style="opacity:1" fill="#b8bcbc" d="M 67.5,88.5 C 68.9464,87.3871 70.6131,87.2204 72.5,88C 75.3846,89.644 78.0513,91.4774 80.5,93.5C 77.3435,92.5057 74.3435,91.1724 71.5,89.5C 70.4324,88.5655 69.099,88.2322 67.5,88.5 Z"/></g>
<g><path style="opacity:1" fill="#80878d" d="M 434.5,91.5 C 434.5,91.8333 434.5,92.1667 434.5,92.5C 433.609,93.1098 432.609,93.4431 431.5,93.5C 431.973,92.0937 432.973,91.427 434.5,91.5 Z"/></g>
<g><path style="opacity:1" fill="#606a72" d="M 67.5,88.5 C 69.099,88.2322 70.4324,88.5655 71.5,89.5C 70.8333,89.5 70.1667,89.5 69.5,89.5C 67.5278,98.4401 66.8611,107.773 67.5,117.5C 67.5,135.167 67.5,152.833 67.5,170.5C 67.5,218.167 67.5,265.833 67.5,313.5C 66.1667,238.5 66.1667,163.5 67.5,88.5 Z"/></g>
<g><path style="opacity:1" fill="#8a9297" d="M 292.5,93.5 C 294.749,94.0798 296.415,95.4131 297.5,97.5C 295.251,96.9202 293.585,95.5869 292.5,93.5 Z"/></g>
<g><path style="opacity:1" fill="#616f79" d="M 185.5,90.5 C 184.652,93.8875 182.652,96.2209 179.5,97.5C 181.273,94.9401 183.273,92.6068 185.5,90.5 Z"/></g>
<g><path style="opacity:1" fill="#5a6772" d="M 221.5,90.5 C 216.215,96.4519 210.548,102.119 204.5,107.5C 209.146,100.854 214.812,95.1878 221.5,90.5 Z"/></g>
<g><path style="opacity:1" fill="#4f5d68" d="M 444.5,127.5 C 444.5,155.833 444.5,184.167 444.5,212.5C 444.832,246.337 444.498,280.004 443.5,313.5C 443.5,238.833 443.5,164.167 443.5,89.5C 442.5,89.5 441.5,89.5 440.5,89.5C 439.833,89.8333 439.167,90.1667 438.5,90.5C 439.918,88.6921 441.918,88.0254 444.5,88.5C 444.5,101.5 444.5,114.5 444.5,127.5 Z"/></g>
<g><path style="opacity:1" fill="#6a757f" d="M 179.5,97.5 C 179.573,99.0269 178.906,100.027 177.5,100.5C 177.427,98.9731 178.094,97.9731 179.5,97.5 Z"/></g>
<g><path style="opacity:1" fill="#cbccca" d="M 86.5,97.5 C 89.2092,98.0134 91.7092,99.0134 94,100.5C 95.2853,100.05 96.452,99.3829 97.5,98.5C 97.8333,98.8333 98.1667,99.1667 98.5,99.5C 97.8333,100.167 97.1667,100.833 96.5,101.5C 97.6016,102.176 98.6016,102.842 99.5,103.5C 94.5217,102.843 90.1884,100.843 86.5,97.5 Z"/></g>
<g><path style="opacity:1" fill="#092131" d="M 69.5,89.5 C 69.9371,99.0651 69.2704,108.398 67.5,117.5C 66.8611,107.773 67.5278,98.4401 69.5,89.5 Z"/></g>
<g><path style="opacity:1" fill="#7d868d" d="M 418.5,100.5 C 416.349,102.718 413.682,104.052 410.5,104.5C 412.746,102.58 415.413,101.247 418.5,100.5 Z"/></g>
<g><path style="opacity:1" fill="#a0a6aa" d="M 406.5,105.5 C 404.245,107.38 401.578,108.38 398.5,108.5C 400.755,106.62 403.422,105.62 406.5,105.5 Z"/></g>
<g><path style="opacity:1" fill="#858e95" d="M 113.5,108.5 C 115.403,108.796 117.07,109.463 118.5,110.5C 116.302,110.88 114.635,110.213 113.5,108.5 Z"/></g>
<g><path style="opacity:1" fill="#6a767f" d="M 340.5,109.5 C 341.906,109.973 342.573,110.973 342.5,112.5C 341.094,112.027 340.427,111.027 340.5,109.5 Z"/></g>
<g><path style="opacity:1" fill="#636d77" d="M 170.5,108.5 C 169.647,112.02 167.647,114.687 164.5,116.5C 166.122,113.545 168.122,110.878 170.5,108.5 Z"/></g>
<g><path style="opacity:1" fill="#747f87" d="M 396.5,109.5 C 390.961,112.458 384.961,114.458 378.5,115.5C 378.611,114.883 378.944,114.383 379.5,114C 385.11,112.184 390.777,110.684 396.5,109.5 Z"/></g>
<g><path style="opacity:1" fill="#aeb1b3" d="M 123.5,111.5 C 126.89,112.023 130.223,112.857 133.5,114C 134.056,114.383 134.389,114.883 134.5,115.5C 130.38,115.156 126.714,113.823 123.5,111.5 Z"/></g>
<g><path style="opacity:1" fill="#58656f" d="M 309.5,111.5 C 311.587,112.585 312.92,114.251 313.5,116.5C 311.413,115.415 310.08,113.749 309.5,111.5 Z"/></g>
<g><path style="opacity:1" fill="#899298" d="M 188.5,114.5 C 188.5,114.833 188.5,115.167 188.5,115.5C 187.396,117.389 186.063,119.055 184.5,120.5C 184.845,117.802 186.178,115.802 188.5,114.5 Z"/></g>
<g><path style="opacity:1" fill="#596873" d="M 377.5,115.5 C 375.572,117.294 373.238,118.294 370.5,118.5C 370.5,118.167 370.5,117.833 370.5,117.5C 372.558,116.067 374.892,115.4 377.5,115.5 Z"/></g>
<g><path style="opacity:1" fill="#9aa0a5" d="M 370.5,117.5 C 370.5,117.833 370.5,118.167 370.5,118.5C 368.167,119.167 365.833,119.833 363.5,120.5C 365.282,118.643 367.615,117.643 370.5,117.5 Z"/></g>
<g><path style="opacity:1" fill="#596671" d="M 163.5,118.5 C 162.864,120.795 161.531,122.461 159.5,123.5C 159.5,123.167 159.5,122.833 159.5,122.5C 160.473,120.861 161.806,119.527 163.5,118.5 Z"/></g>
<g><path style="opacity:1" fill="#1b3545" d="M 258.5,115.5 C 265.077,122.352 271.41,129.352 277.5,136.5C 279.833,139.5 282.5,142.167 285.5,144.5C 288.5,146.833 291.167,149.5 293.5,152.5C 293.973,153.906 294.973,154.573 296.5,154.5C 300.356,158.515 304.689,162.015 309.5,165C 311.037,166.11 311.703,167.61 311.5,169.5C 309.018,170.663 307.684,172.663 307.5,175.5C 307.167,175.5 306.833,175.5 306.5,175.5C 305.71,176.609 305.21,177.942 305,179.5C 304.402,188.832 303.902,198.165 303.5,207.5C 302.172,228.004 302.172,248.671 303.5,269.5C 304.167,273.647 304.834,277.647 305.5,281.5C 305.861,285.463 306.861,289.13 308.5,292.5C 310.077,298.473 312.411,304.139 315.5,309.5C 315.158,310.338 314.492,310.672 313.5,310.5C 306.908,309.335 300.242,308.002 293.5,306.5C 291.562,304.837 289.228,304.171 286.5,304.5C 285.833,304.5 285.167,304.5 284.5,304.5C 282.562,302.837 280.228,302.171 277.5,302.5C 278.799,299.316 279.799,295.983 280.5,292.5C 280.5,291.833 280.5,291.167 280.5,290.5C 281.222,290.082 281.722,289.416 282,288.5C 282.5,276.838 282.667,265.171 282.5,253.5C 282.5,244.5 282.5,235.5 282.5,226.5C 280.447,226.402 278.78,227.069 277.5,228.5C 273.57,230.759 270.237,233.759 267.5,237.5C 263.564,239.766 260.231,242.766 257.5,246.5C 256.292,247.234 254.959,247.567 253.5,247.5C 248.742,241.405 243.076,236.405 236.5,232.5C 235.275,231.063 234.275,229.396 233.5,227.5C 231.573,228.862 229.573,229.862 227.5,230.5C 226.883,230.389 226.383,230.056 226,229.5C 225.333,248.5 225.333,267.5 226,286.5C 226.278,287.416 226.778,288.082 227.5,288.5C 227.833,288.5 228.167,288.5 228.5,288.5C 229.048,290.626 229.715,292.626 230.5,294.5C 231.478,296.456 232.478,298.456 233.5,300.5C 230.645,302.25 227.311,303.083 223.5,303C 222.944,303.383 222.611,303.883 222.5,304.5C 221.833,304.5 221.167,304.5 220.5,304.5C 214.729,305.221 209.062,306.387 203.5,308C 202.944,308.383 202.611,308.883 202.5,309.5C 200.513,310.343 198.346,311.01 196,311.5C 195.5,311.167 195,310.833 194.5,310.5C 195.18,309.14 195.847,307.807 196.5,306.5C 198.852,304.822 200.186,302.489 200.5,299.5C 201.167,298.167 201.833,296.833 202.5,295.5C 204.855,293.077 205.855,290.077 205.5,286.5C 206.167,284.167 206.833,281.833 207.5,279.5C 208.167,270.5 208.833,261.5 209.5,252.5C 210.468,250.393 210.802,248.059 210.5,245.5C 211.117,245.611 211.617,245.944 212,246.5C 212.5,232.504 212.667,218.504 212.5,204.5C 216.619,203.632 217.119,201.966 214,199.5C 212.85,200.424 211.85,200.424 211,199.5C 210.667,193.5 210.333,187.5 210,181.5C 209.5,187.825 209.334,194.158 209.5,200.5C 209.167,200.5 208.833,200.5 208.5,200.5C 208.83,194.132 208.496,187.798 207.5,181.5C 206.989,179.116 205.989,177.116 204.5,175.5C 204.205,173.577 203.372,171.91 202,170.5C 201.333,168.833 201.333,167.167 202,165.5C 217.296,153.371 231.463,140.037 244.5,125.5C 246.587,124.415 247.92,122.749 248.5,120.5C 249.5,118.833 250.833,117.5 252.5,116.5C 254.017,116.489 255.184,115.823 256,114.5C 256.671,115.252 257.504,115.586 258.5,115.5 Z"/></g>
<g><path style="opacity:1" fill="#9ea4a8" d="M 146.5,119.5 C 150.936,120.385 155.269,121.385 159.5,122.5C 159.5,122.833 159.5,123.167 159.5,123.5C 158.021,124.506 156.354,124.506 154.5,123.5C 151.583,122.346 148.916,121.013 146.5,119.5 Z"/></g>
<g><path style="opacity:1" fill="#64717a" d="M 363.5,120.5 C 361.077,122.855 358.077,123.855 354.5,123.5C 357.152,121.711 360.152,120.711 363.5,120.5 Z"/></g>
<g><path style="opacity:1" fill="#747e86" d="M 192.5,121.5 C 191.521,125.461 189.521,128.794 186.5,131.5C 188,127.827 190,124.494 192.5,121.5 Z"/></g>
<g><path style="opacity:1" fill="#4c5c67" d="M 106.5,124.5 C 112.818,125.833 118.818,127.833 124.5,130.5C 122.473,130.662 120.473,130.495 118.5,130C 114.541,127.862 110.541,126.029 106.5,124.5 Z"/></g>
<g><path style="opacity:1" fill="#9ba0a6" d="M 183.5,121.5 C 182.61,124.948 180.943,127.948 178.5,130.5C 179.39,127.052 181.057,124.052 183.5,121.5 Z"/></g>
<g><path style="opacity:1" fill="#b8bcbb" d="M 93.5,128.5 C 95.099,128.232 96.4324,128.566 97.5,129.5C 94.7524,129.402 94.0857,130.402 95.5,132.5C 93.8235,131.817 93.1568,130.483 93.5,128.5 Z"/></g>
<g><path style="opacity:1" fill="#f6f1e8" d="M 91.5,121.5 C 94.4877,123.331 97.8211,124.498 101.5,125C 98.6262,125.942 95.9596,127.109 93.5,128.5C 93.1568,130.483 93.8235,131.817 95.5,132.5C 96.609,132.557 97.609,132.89 98.5,133.5C 99.2905,134.401 100.29,135.068 101.5,135.5C 106.037,137.365 109.704,140.365 112.5,144.5C 112.887,147.206 113.887,149.539 115.5,151.5C 121.348,152.877 127.348,154.377 133.5,156C 137.806,160.455 140.806,165.621 142.5,171.5C 142.821,173.048 143.821,173.715 145.5,173.5C 145.5,166.833 145.5,160.167 145.5,153.5C 146.491,151.518 147.491,149.518 148.5,147.5C 148.833,147.833 149.167,148.167 149.5,148.5C 149.013,149.446 148.68,150.446 148.5,151.5C 149.818,181.581 150.485,211.747 150.5,242C 150.167,271.5 149.833,301 149.5,330.5C 148.614,329.675 148.281,328.675 148.5,327.5C 146.876,327.64 145.71,326.973 145,325.5C 143.644,326.38 142.144,326.714 140.5,326.5C 136.46,324.15 132.46,321.816 128.5,319.5C 127.329,318.655 125.995,317.989 124.5,317.5C 120.355,314.535 115.688,312.535 110.5,311.5C 108.447,311.598 106.78,310.931 105.5,309.5C 103.967,307.755 101.967,306.755 99.5,306.5C 99.1667,306.5 98.8333,306.5 98.5,306.5C 98.0269,305.094 97.0269,304.427 95.5,304.5C 91.9796,303.647 89.3129,301.647 87.5,298.5C 87.5,298.167 87.5,297.833 87.5,297.5C 88.8333,238.833 90.1667,180.167 91.5,121.5 Z"/></g>
<g><path style="opacity:1" fill="#384854" d="M 97.5,129.5 C 99.1667,130.167 100.833,130.833 102.5,131.5C 101.127,131.343 99.7932,131.51 98.5,132C 99.7375,132.232 100.737,132.732 101.5,133.5C 100.5,133.5 99.5,133.5 98.5,133.5C 97.609,132.89 96.609,132.557 95.5,132.5C 94.0857,130.402 94.7524,129.402 97.5,129.5 Z"/></g>
<g><path style="opacity:1" fill="#132839" d="M 102.5,131.5 C 109.221,133.314 108.887,134.314 101.5,134.5C 101.5,134.167 101.5,133.833 101.5,133.5C 100.737,132.732 99.7375,132.232 98.5,132C 99.7932,131.51 101.127,131.343 102.5,131.5 Z"/></g>
<g><path style="opacity:1" fill="#8d979e" d="M 98.5,133.5 C 99.5,133.5 100.5,133.5 101.5,133.5C 101.5,133.833 101.5,134.167 101.5,134.5C 101.5,134.833 101.5,135.167 101.5,135.5C 100.29,135.068 99.2905,134.401 98.5,133.5 Z"/></g>
<g><path style="opacity:1" fill="#bdc1c1" d="M 178.5,130.5 C 177.602,134.871 175.935,138.871 173.5,142.5C 174.398,138.129 176.065,134.129 178.5,130.5 Z"/></g>
<g><path style="opacity:1" fill="#1e3746" d="M 254.5,70.5 C 258.157,70.506 261.49,71.506 264.5,73.5C 265.29,74.4013 266.29,75.0679 267.5,75.5C 267.973,76.9063 268.973,77.573 270.5,77.5C 273.395,78.7987 276.062,80.4654 278.5,82.5C 279.262,84.2624 280.596,85.2624 282.5,85.5C 283.262,87.2624 284.596,88.2624 286.5,88.5C 288.46,90.1563 290.46,91.823 292.5,93.5C 293.585,95.5869 295.251,96.9202 297.5,97.5C 301.874,101.872 305.874,106.539 309.5,111.5C 310.08,113.749 311.413,115.415 313.5,116.5C 320.571,123.976 325.571,132.643 328.5,142.5C 328.963,145.33 329.629,147.997 330.5,150.5C 330.833,150.5 331.167,150.5 331.5,150.5C 331.806,153.385 331.473,156.052 330.5,158.5C 327.866,153.593 324.866,148.926 321.5,144.5C 320.389,141.144 318.723,138.144 316.5,135.5C 315.833,135.5 315.5,135.167 315.5,134.5C 315.573,132.973 314.906,131.973 313.5,131.5C 310.933,126.596 307.599,122.263 303.5,118.5C 302.581,115.911 300.914,113.911 298.5,112.5C 288.428,101.98 277.428,92.6467 265.5,84.5C 263.967,82.7549 261.967,81.7549 259.5,81.5C 258.054,80.3871 256.387,80.2204 254.5,81C 252.569,81.9022 250.903,83.0688 249.5,84.5C 247.973,84.427 246.973,85.0937 246.5,86.5C 244.973,86.427 243.973,87.0937 243.5,88.5C 240.467,90.016 237.8,92.016 235.5,94.5C 231.163,97.1739 227.496,100.507 224.5,104.5C 219.226,108.105 214.559,112.438 210.5,117.5C 204.107,125.223 198.107,133.223 192.5,141.5C 190.103,143.662 188.436,146.329 187.5,149.5C 186.094,149.973 185.427,150.973 185.5,152.5C 183.365,155.207 181.698,158.207 180.5,161.5C 179.515,157.366 179.182,153.032 179.5,148.5C 179.833,148.5 180.167,148.5 180.5,148.5C 181.285,146.626 181.952,144.626 182.5,142.5C 182.5,141.5 182.5,140.5 182.5,139.5C 184.396,137.163 185.73,134.496 186.5,131.5C 189.521,128.794 191.521,125.461 192.5,121.5C 194.226,119.772 195.559,117.772 196.5,115.5C 198.806,112.527 201.473,109.86 204.5,107.5C 210.548,102.119 216.215,96.4519 221.5,90.5C 223.304,88.5327 225.304,86.6993 227.5,85C 233.08,81.3053 238.747,77.8053 244.5,74.5C 247.481,74.8176 249.815,73.8176 251.5,71.5C 252.209,70.596 253.209,70.2627 254.5,70.5 Z"/></g>
<g><path style="opacity:1" fill="#929ba0" d="M 313.5,131.5 C 314.906,131.973 315.573,132.973 315.5,134.5C 314.094,134.027 313.427,133.027 313.5,131.5 Z"/></g>
<g><path style="opacity:1" fill="#747d84" d="M 248.5,120.5 C 247.92,122.749 246.587,124.415 244.5,125.5C 245.08,123.251 246.413,121.585 248.5,120.5 Z"/></g>
<g><path style="opacity:1" fill="#69737b" d="M 258.5,115.5 C 257.504,115.586 256.671,115.252 256,114.5C 255.184,115.823 254.017,116.489 252.5,116.5C 254.185,113.145 256.185,112.811 258.5,115.5 Z"/></g>
<g><path style="opacity:1" fill="#8a9298" d="M 298.5,112.5 C 300.914,113.911 302.581,115.911 303.5,118.5C 301.086,117.089 299.419,115.089 298.5,112.5 Z"/></g>
<g><path style="opacity:1" fill="#b6baba" d="M 224.5,104.5 C 220.441,109.562 215.774,113.895 210.5,117.5C 214.559,112.438 219.226,108.105 224.5,104.5 Z"/></g>
<g><path style="opacity:1" fill="#bec1c1" d="M 243.5,88.5 C 243.5,89.5 243.5,90.5 243.5,91.5C 240.626,92.0634 237.96,93.0634 235.5,94.5C 237.8,92.016 240.467,90.016 243.5,88.5 Z"/></g>
<g><path style="opacity:1" fill="#889198" d="M 246.5,86.5 C 246.027,87.9063 245.027,88.573 243.5,88.5C 243.973,87.0937 244.973,86.427 246.5,86.5 Z"/></g>
<g><path style="opacity:1" fill="#8c9398" d="M 249.5,84.5 C 249.027,85.9063 248.027,86.573 246.5,86.5C 246.973,85.0937 247.973,84.427 249.5,84.5 Z"/></g>
<g><path style="opacity:1" fill="#637179" d="M 259.5,81.5 C 261.967,81.7549 263.967,82.7549 265.5,84.5C 263.033,84.2451 261.033,83.2451 259.5,81.5 Z"/></g>
<g><path style="opacity:1" fill="#979fa3" d="M 259.5,81.5 C 256.204,82.4243 252.871,83.4243 249.5,84.5C 250.903,83.0688 252.569,81.9022 254.5,81C 256.387,80.2204 258.054,80.3871 259.5,81.5 Z"/></g>
<g><path style="opacity:1" fill="#4d5e68" d="M 130.5,133.5 C 135.537,133.072 139.537,134.738 142.5,138.5C 138.659,136.24 134.659,134.573 130.5,133.5 Z"/></g>
<g><path style="opacity:1" fill="#a5abae" d="M 277.5,136.5 C 281.167,138.167 283.833,140.833 285.5,144.5C 282.5,142.167 279.833,139.5 277.5,136.5 Z"/></g>
<g><path style="opacity:1" fill="#cbcdcb" d="M 112.5,133.5 C 119.175,135.247 125.509,137.747 131.5,141C 133.112,141.72 134.612,141.554 136,140.5C 137.511,141.564 137.677,142.897 136.5,144.5C 128.201,141.192 120.201,137.525 112.5,133.5 Z"/></g>
<g><path style="opacity:1" fill="#a1a7ab" d="M 186.5,131.5 C 185.73,134.496 184.396,137.163 182.5,139.5C 182.896,136.279 184.229,133.612 186.5,131.5 Z"/></g>
<g><path style="opacity:1" fill="#b6babb" d="M 316.5,135.5 C 318.723,138.144 320.389,141.144 321.5,144.5C 320.624,144.631 319.957,144.298 319.5,143.5C 317.942,141.009 316.942,138.343 316.5,135.5 Z"/></g>
<g><path style="opacity:1" fill="#eeece5" d="M 88.5,119.5 C 88.8333,119.5 89.1667,119.5 89.5,119.5C 95.0077,121.667 100.674,123.333 106.5,124.5C 110.541,126.029 114.541,127.862 118.5,130C 120.473,130.495 122.473,130.662 124.5,130.5C 126.113,132.088 128.113,133.088 130.5,133.5C 134.659,134.573 138.659,136.24 142.5,138.5C 146.974,141.471 149.974,145.471 151.5,150.5C 152.163,211.509 151.496,272.176 149.5,332.5C 145.975,331.241 142.975,329.241 140.5,326.5C 142.144,326.714 143.644,326.38 145,325.5C 145.71,326.973 146.876,327.64 148.5,327.5C 148.281,328.675 148.614,329.675 149.5,330.5C 149.833,301 150.167,271.5 150.5,242C 150.485,211.747 149.818,181.581 148.5,151.5C 148.68,150.446 149.013,149.446 149.5,148.5C 149.167,148.167 148.833,147.833 148.5,147.5C 147.491,149.518 146.491,151.518 145.5,153.5C 144.833,153.167 144.167,152.833 143.5,152.5C 142.585,150.246 141.252,148.246 139.5,146.5C 139.027,145.094 138.027,144.427 136.5,144.5C 137.677,142.897 137.511,141.564 136,140.5C 134.612,141.554 133.112,141.72 131.5,141C 125.509,137.747 119.175,135.247 112.5,133.5C 109.266,132.424 105.932,131.757 102.5,131.5C 100.833,130.833 99.1667,130.167 97.5,129.5C 96.4324,128.566 95.099,128.232 93.5,128.5C 95.9596,127.109 98.6262,125.942 101.5,125C 97.8211,124.498 94.4877,123.331 91.5,121.5C 90.5,120.833 89.5,120.167 88.5,119.5 Z"/></g>
<g><path style="opacity:1" fill="#a5a7aa" d="M 136.5,144.5 C 138.027,144.427 139.027,145.094 139.5,146.5C 137.973,146.573 136.973,145.906 136.5,144.5 Z"/></g>
<g><path style="opacity:1" fill="#848d94" d="M 182.5,142.5 C 181.952,144.626 181.285,146.626 180.5,148.5C 180.025,145.918 180.692,143.918 182.5,142.5 Z"/></g>
<g><path style="opacity:1" fill="#9fa6a9" d="M 192.5,141.5 C 191.564,144.671 189.897,147.338 187.5,149.5C 188.436,146.329 190.103,143.662 192.5,141.5 Z"/></g>
<g><path style="opacity:1" fill="#899298" d="M 328.5,142.5 C 330.369,144.635 331.036,147.302 330.5,150.5C 329.629,147.997 328.963,145.33 328.5,142.5 Z"/></g>
<g><path style="opacity:1" fill="#8c9298" d="M 173.5,142.5 C 172.949,146.973 172.283,151.307 171.5,155.5C 171.334,151.486 171.501,147.486 172,143.5C 172.383,142.944 172.883,142.611 173.5,142.5 Z"/></g>
<g><path style="opacity:1" fill="#838d93" d="M 112.5,144.5 C 114.357,146.282 115.357,148.615 115.5,151.5C 113.887,149.539 112.887,147.206 112.5,144.5 Z"/></g>
<g><path style="opacity:1" fill="#f4f0e7" d="M 278.5,171.5 C 278.694,174.33 279.361,176.996 280.5,179.5C 280.5,189.5 280.5,199.5 280.5,209.5C 278.302,209.12 276.635,209.787 275.5,211.5C 273.517,211.157 272.183,211.824 271.5,213.5C 268.762,213.706 266.428,214.706 264.5,216.5C 261.357,216.969 259.023,218.636 257.5,221.5C 255.302,221.88 253.635,221.213 252.5,219.5C 252.027,218.094 251.027,217.427 249.5,217.5C 247.701,214.694 245.034,213.361 241.5,213.5C 238.079,211.433 234.413,210.1 230.5,209.5C 230.333,198.495 230.5,187.495 231,176.5C 232.135,174.63 232.968,172.63 233.5,170.5C 233.328,169.508 233.662,168.842 234.5,168.5C 239.512,164.487 243.845,159.821 247.5,154.5C 249.969,151.866 252.636,149.366 255.5,147C 266.271,151.946 273.938,160.113 278.5,171.5 Z"/></g>
<g><path style="opacity:1" fill="#879096" d="M 187.5,149.5 C 187.573,151.027 186.906,152.027 185.5,152.5C 185.427,150.973 186.094,149.973 187.5,149.5 Z"/></g>
<g><path style="opacity:1" fill="#223948" d="M 102.5,131.5 C 105.932,131.757 109.266,132.424 112.5,133.5C 120.201,137.525 128.201,141.192 136.5,144.5C 136.973,145.906 137.973,146.573 139.5,146.5C 141.252,148.246 142.585,150.246 143.5,152.5C 144.589,159.117 144.756,165.783 144,172.5C 143.617,171.944 143.117,171.611 142.5,171.5C 140.806,165.621 137.806,160.455 133.5,156C 127.348,154.377 121.348,152.877 115.5,151.5C 115.357,148.615 114.357,146.282 112.5,144.5C 109.704,140.365 106.037,137.365 101.5,135.5C 101.5,135.167 101.5,134.833 101.5,134.5C 108.887,134.314 109.221,133.314 102.5,131.5 Z"/></g>
<g><path style="opacity:1" fill="#96a0a3" d="M 179.5,148.5 C 179.182,153.032 179.515,157.366 180.5,161.5C 179.427,164.831 178.427,164.998 177.5,162C 178.022,157.335 178.689,152.835 179.5,148.5 Z"/></g>
<g><path style="opacity:1" fill="#a1a7a9" d="M 143.5,152.5 C 144.167,152.833 144.833,153.167 145.5,153.5C 145.5,160.167 145.5,166.833 145.5,173.5C 143.821,173.715 142.821,173.048 142.5,171.5C 143.117,171.611 143.617,171.944 144,172.5C 144.756,165.783 144.589,159.117 143.5,152.5 Z"/></g>
<g><path style="opacity:1" fill="#203d4b" d="M 440.5,89.5 C 441.496,158.429 441.83,227.429 441.5,296.5C 440.696,228.223 440.03,159.89 439.5,91.5C 437.784,91.6287 436.117,91.962 434.5,92.5C 434.5,92.1667 434.5,91.8333 434.5,91.5C 435.708,90.7659 437.041,90.4326 438.5,90.5C 439.167,90.1667 439.833,89.8333 440.5,89.5 Z"/></g>
<g><path style="opacity:1" fill="#afb6b8" d="M 444.5,127.5 C 445.412,138.328 446.079,149.328 446.5,160.5C 445.64,177.823 445.306,195.156 445.5,212.5C 445.167,212.5 444.833,212.5 444.5,212.5C 444.5,184.167 444.5,155.833 444.5,127.5 Z"/></g>
<g><path style="opacity:1" fill="#fdfaf4" d="M 88.5,119.5 C 89.5,120.167 90.5,120.833 91.5,121.5C 90.1667,180.167 88.8333,238.833 87.5,297.5C 87.1676,237.998 87.5009,178.664 88.5,119.5 Z"/></g>
<g><path style="opacity:1" fill="#082132" d="M 440.5,89.5 C 441.5,89.5 442.5,89.5 443.5,89.5C 443.5,164.167 443.5,238.833 443.5,313.5C 442.833,313.5 442.5,313.833 442.5,314.5C 441.022,314.762 439.689,314.429 438.5,313.5C 439.325,312.614 440.325,312.281 441.5,312.5C 441.5,307.167 441.5,301.833 441.5,296.5C 441.83,227.429 441.496,158.429 440.5,89.5 Z"/></g>
<g><path style="opacity:1" fill="#dedfdd" d="M 444.5,212.5 C 444.833,212.5 445.167,212.5 445.5,212.5C 445.234,245.969 445.568,279.303 446.5,312.5C 446.32,313.554 445.987,314.554 445.5,315.5C 442.87,316.381 440.203,317.048 437.5,317.5C 438.913,316.065 440.58,315.065 442.5,314.5C 442.5,313.833 442.833,313.5 443.5,313.5C 444.498,280.004 444.832,246.337 444.5,212.5 Z"/></g>
<g><path style="opacity:1" fill="#9b9fa2" d="M 151.5,150.5 C 152.167,150.5 152.5,150.833 152.5,151.5C 152.5,212.167 152.5,272.833 152.5,333.5C 151.209,333.737 150.209,333.404 149.5,332.5C 151.496,272.176 152.163,211.509 151.5,150.5 Z"/></g>
<g><path style="opacity:1" fill="#afb1b3" d="M 89.5,119.5 C 89.1667,119.5 88.8333,119.5 88.5,119.5C 87.5009,178.664 87.1676,237.998 87.5,297.5C 87.5,297.833 87.5,298.167 87.5,298.5C 86.1685,238.332 86.1685,177.999 87.5,117.5C 88.5223,117.855 89.189,118.522 89.5,119.5 Z"/></g>
<g><path style="opacity:1" fill="#092232" d="M 69.5,314.5 C 68.8333,314.167 68.1667,313.833 67.5,313.5C 67.5,265.833 67.5,218.167 67.5,170.5C 68.1174,170.389 68.6174,170.056 69,169.5C 69.5,217.166 69.6667,264.832 69.5,312.5C 76.1667,313.167 76.1667,313.833 69.5,314.5 Z"/></g>
<g><path style="opacity:1" fill="#92999e" d="M 95.5,304.5 C 97.0269,304.427 98.0269,305.094 98.5,306.5C 96.9731,306.573 95.9731,305.906 95.5,304.5 Z"/></g>
<g><path style="opacity:1" fill="#acafb2" d="M 99.5,306.5 C 101.967,306.755 103.967,307.755 105.5,309.5C 103.033,309.245 101.033,308.245 99.5,306.5 Z"/></g>
<g><path style="opacity:1" fill="#c3c5c5" d="M 110.5,311.5 C 115.688,312.535 120.355,314.535 124.5,317.5C 124.167,317.5 123.833,317.5 123.5,317.5C 118.716,316.25 114.382,314.25 110.5,311.5 Z"/></g>
<g><path style="opacity:1" fill="#667179" d="M 72.5,315.5 C 76.6564,315.846 80.323,317.18 83.5,319.5C 80.2791,318.495 76.9457,317.661 73.5,317C 72.944,316.617 72.6107,316.117 72.5,315.5 Z"/></g>
<g><path style="opacity:1" fill="#707b83" d="M 123.5,317.5 C 123.833,317.5 124.167,317.5 124.5,317.5C 125.995,317.989 127.329,318.655 128.5,319.5C 126.302,319.88 124.635,319.213 123.5,317.5 Z"/></g>
<g><path style="opacity:1" fill="#a6acaf" d="M 435.5,317.5 C 433.967,319.245 431.967,320.245 429.5,320.5C 431.033,318.755 433.033,317.755 435.5,317.5 Z"/></g>
<g><path style="opacity:1" fill="#a6abaf" d="M 429.5,320.5 C 426.947,322.584 423.947,323.917 420.5,324.5C 421.903,323.069 423.569,321.902 425.5,321C 426.793,320.51 428.127,320.343 429.5,320.5 Z"/></g>
<g><path style="opacity:1" fill="#68737b" d="M 96.5,325.5 C 102.163,327.603 107.496,330.27 112.5,333.5C 106.614,331.771 101.281,329.105 96.5,325.5 Z"/></g>
<g><path style="opacity:1" fill="#a5abad" d="M 413.5,327.5 C 409.765,329.376 406.098,331.543 402.5,334C 401.207,334.49 399.873,334.657 398.5,334.5C 402.834,330.855 407.834,328.522 413.5,327.5 Z"/></g>
<g><path style="opacity:1" fill="#1b3545" d="M 441.5,296.5 C 441.5,301.833 441.5,307.167 441.5,312.5C 440.325,312.281 439.325,312.614 438.5,313.5C 439.689,314.429 441.022,314.762 442.5,314.5C 440.58,315.065 438.913,316.065 437.5,317.5C 436.833,317.5 436.167,317.5 435.5,317.5C 433.033,317.755 431.033,318.755 429.5,320.5C 428.127,320.343 426.793,320.51 425.5,321C 423.569,321.902 421.903,323.069 420.5,324.5C 417.937,325.088 415.604,326.088 413.5,327.5C 407.834,328.522 402.834,330.855 398.5,334.5C 395.5,335.833 392.5,337.167 389.5,338.5C 387.566,339.11 385.899,340.11 384.5,341.5C 377.055,346.227 370.389,351.893 364.5,358.5C 361.529,360.443 359.529,363.109 358.5,366.5C 357.11,367.899 356.11,369.566 355.5,371.5C 354.333,372.815 352.833,373.481 351,373.5C 348.524,372.342 346.024,371.342 343.5,370.5C 340.742,369.239 337.742,368.406 334.5,368C 333.944,367.617 333.611,367.117 333.5,366.5C 325.74,363.673 317.74,361.34 309.5,359.5C 307.585,359.784 305.919,359.451 304.5,358.5C 304.389,357.883 304.056,357.383 303.5,357C 295.178,354.981 286.845,353.481 278.5,352.5C 274.605,351.775 270.605,351.109 266.5,350.5C 260.681,349.347 254.681,349.181 248.5,350C 247.944,350.383 247.611,350.883 247.5,351.5C 243.102,351.294 238.768,351.627 234.5,352.5C 227.143,353.035 220.143,354.702 213.5,357.5C 207.858,358.056 202.525,359.389 197.5,361.5C 191.761,363.25 186.094,365.25 180.5,367.5C 177.99,367.054 175.99,367.72 174.5,369.5C 172.585,369.216 170.919,369.549 169.5,370.5C 165.486,371.511 161.486,372.511 157.5,373.5C 155.597,368.693 152.93,364.36 149.5,360.5C 150.038,358.883 150.371,357.216 150.5,355.5C 152.429,355.769 154.095,355.269 155.5,354C 153.522,351.985 151.688,352.152 150,354.5C 150.442,352.124 151.609,349.957 153.5,348C 151.016,346.394 151.016,344.894 153.5,343.5C 152.387,340.508 151.054,337.675 149.5,335C 150.737,334.768 151.737,334.268 152.5,333.5C 152.5,272.833 152.5,212.167 152.5,151.5C 153.117,151.389 153.617,151.056 154,150.5C 154.5,162.829 154.667,175.162 154.5,187.5C 155.552,187.649 156.552,187.483 157.5,187C 156.484,186.481 155.818,185.647 155.5,184.5C 155.737,181.937 156.237,181.937 157,184.5C 157.595,183.101 157.428,181.768 156.5,180.5C 159.86,178.64 162.36,175.973 164,172.5C 164.116,170.345 163.783,168.345 163,166.5C 164.815,168.1 165.982,170.1 166.5,172.5C 165.5,175.834 164.5,179.167 163.5,182.5C 159.562,181.433 158.896,182.433 161.5,185.5C 160.5,186.167 159.5,186.833 158.5,187.5C 159.333,187.833 160.167,188.167 161,188.5C 166.862,186.235 168.028,188.235 164.5,194.5C 164.919,195.672 165.585,196.672 166.5,197.5C 167.167,183.5 167.833,169.5 168.5,155.5C 169.167,215.665 169.833,275.665 170.5,335.5C 170.808,339.36 171.475,343.026 172.5,346.5C 172.735,347.097 173.235,347.43 174,347.5C 176.03,347.046 177.863,346.38 179.5,345.5C 183.2,343.719 187.2,342.719 191.5,342.5C 195.281,341.561 198.947,340.561 202.5,339.5C 207.661,339.954 212.327,338.954 216.5,336.5C 222.001,334.723 227.667,333.723 233.5,333.5C 244.817,332.741 256.15,332.407 267.5,332.5C 267.611,333.117 267.944,333.617 268.5,334C 272.486,334.499 276.486,334.666 280.5,334.5C 281.167,334.5 281.833,334.5 282.5,334.5C 290.492,336.905 298.825,338.572 307.5,339.5C 315.736,341.309 324.07,343.309 332.5,345.5C 334.167,346.167 335.833,346.833 337.5,347.5C 338.833,348.833 340.167,348.833 341.5,347.5C 342.833,316.34 343.5,284.84 343.5,253C 343.5,221.16 342.833,189.66 341.5,158.5C 341.5,157.5 341.5,156.5 341.5,155.5C 343.068,153.189 343.902,150.522 344,147.5C 345.997,144.288 348.831,142.788 352.5,143C 356.655,145.273 356.322,146.439 351.5,146.5C 351.5,147.833 351.5,149.167 351.5,150.5C 352.5,150.5 353.5,150.5 354.5,150.5C 354.5,151.5 354.5,152.5 354.5,153.5C 353.325,153.281 352.325,153.614 351.5,154.5C 351.707,157.396 351.873,160.396 352,163.5C 352.915,164.328 353.581,165.328 354,166.5C 354.175,162.789 354.675,159.122 355.5,155.5C 356.167,158.642 356.834,161.642 357.5,164.5C 358.496,220.762 358.829,277.095 358.5,333.5C 359.791,333.737 360.791,333.404 361.5,332.5C 361.842,331.662 362.508,331.328 363.5,331.5C 367.173,330 370.506,328 373.5,325.5C 375.456,324.508 377.456,323.508 379.5,322.5C 383.424,320.868 387.09,318.868 390.5,316.5C 391.391,315.89 392.391,315.557 393.5,315.5C 395.027,315.573 396.027,314.906 396.5,313.5C 397.167,313.5 397.833,313.5 398.5,313.5C 401.927,312.95 404.927,311.616 407.5,309.5C 412.062,307.335 416.395,305.001 420.5,302.5C 421.5,301.833 422.5,301.167 423.5,300.5C 423.833,300.5 424.167,300.5 424.5,300.5C 425.499,239.669 425.832,178.669 425.5,117.5C 424.209,117.263 423.209,117.596 422.5,118.5C 421.167,119.167 419.833,119.833 418.5,120.5C 416.219,120.077 414.552,120.744 413.5,122.5C 408.101,123.696 402.767,125.196 397.5,127C 396.944,127.383 396.611,127.883 396.5,128.5C 393.892,128.4 391.558,129.067 389.5,130.5C 387.199,131.06 384.866,131.56 382.5,132C 381.944,132.383 381.611,132.883 381.5,133.5C 379.517,133.157 378.183,133.824 377.5,135.5C 373.712,135.309 370.712,136.642 368.5,139.5C 366.368,139.554 365.035,140.554 364.5,142.5C 363.5,143.167 362.5,143.833 361.5,144.5C 360.662,144.842 360.328,145.508 360.5,146.5C 358.4,144.404 355.9,142.737 353,141.5C 352.5,140 352,138.5 351.5,137C 353.123,135.124 352.79,133.79 350.5,133C 353.948,130.45 353.948,128.283 350.5,126.5C 352.332,125.943 353.665,124.943 354.5,123.5C 358.077,123.855 361.077,122.855 363.5,120.5C 365.833,119.833 368.167,119.167 370.5,118.5C 373.238,118.294 375.572,117.294 377.5,115.5C 377.833,115.5 378.167,115.5 378.5,115.5C 384.961,114.458 390.961,112.458 396.5,109.5C 397.167,109.167 397.833,108.833 398.5,108.5C 401.578,108.38 404.245,107.38 406.5,105.5C 407.568,104.566 408.901,104.232 410.5,104.5C 413.682,104.052 416.349,102.718 418.5,100.5C 422.97,98.3495 427.303,96.0162 431.5,93.5C 432.609,93.4431 433.609,93.1098 434.5,92.5C 436.117,91.962 437.784,91.6287 439.5,91.5C 440.03,159.89 440.696,228.223 441.5,296.5 Z"/></g>
<g><path style="opacity:1" fill="#c7c9c9" d="M 202.5,339.5 C 198.947,340.561 195.281,341.561 191.5,342.5C 192.058,341.21 193.058,340.377 194.5,340C 197.146,339.503 199.813,339.336 202.5,339.5 Z"/></g>
<g><path style="opacity:1" fill="#868f96" d="M 216.5,336.5 C 212.327,338.954 207.661,339.954 202.5,339.5C 207.128,338.503 211.795,337.503 216.5,336.5 Z"/></g>
<g><path style="opacity:1" fill="#65717a" d="M 331.5,330.5 C 332.117,330.611 332.617,330.944 333,331.5C 333.495,333.473 333.662,335.473 333.5,337.5C 327.23,337.376 321.23,336.376 315.5,334.5C 321.352,334.446 327.019,335.112 332.5,336.5C 332.483,334.435 332.15,332.435 331.5,330.5 Z"/></g>
<g><path style="opacity:1" fill="#d0d0cd" d="M 206.5,332.5 C 204.04,333.891 201.374,335.058 198.5,336C 199.741,337.487 199.241,338.32 197,338.5C 195.876,337.516 194.376,336.849 192.5,336.5C 190.793,336.728 189.126,337.062 187.5,337.5C 187.611,336.883 187.944,336.383 188.5,336C 194.429,334.424 200.429,333.258 206.5,332.5 Z"/></g>
<g><path style="opacity:1" fill="#aaaeb0" d="M 282.5,334.5 C 288.396,335.494 294.396,336.327 300.5,337C 302.927,337.902 305.26,338.736 307.5,339.5C 298.825,338.572 290.492,336.905 282.5,334.5 Z"/></g>
<g><path style="opacity:1" fill="#757f87" d="M 327.5,328.5 C 329.153,328.66 330.486,329.326 331.5,330.5C 329.62,330.771 328.287,330.104 327.5,328.5 Z"/></g>
<g><path style="opacity:1" fill="#aab0b3" d="M 191.5,325.5 C 187.948,327.732 183.948,329.066 179.5,329.5C 183.058,327.065 187.058,325.732 191.5,325.5 Z"/></g>
<g><path style="opacity:1" fill="#7a868c" d="M 322.5,326.5 C 324.403,326.796 326.07,327.463 327.5,328.5C 325.302,328.88 323.635,328.213 322.5,326.5 Z"/></g>
<g><path style="opacity:1" fill="#7d878e" d="M 373.5,325.5 C 370.506,328 367.173,330 363.5,331.5C 366.206,328.479 369.539,326.479 373.5,325.5 Z"/></g>
<g><path style="opacity:1" fill="#9aa2a6" d="M 312.5,322.5 C 316.313,322.938 319.646,324.271 322.5,326.5C 321.127,326.657 319.793,326.49 318.5,326C 316.242,325.124 314.242,323.957 312.5,322.5 Z"/></g>
<g><path style="opacity:1" fill="#465561" d="M 217.5,319.5 C 210.9,321.166 204.233,322.833 197.5,324.5C 197.611,323.883 197.944,323.383 198.5,323C 203.007,322.575 207.341,321.742 211.5,320.5C 213.435,319.85 215.435,319.517 217.5,319.5 Z"/></g>
<g><path style="opacity:1" fill="#777f86" d="M 299.5,320.5 C 300.167,320.5 300.833,320.5 301.5,320.5C 304.01,320.054 306.01,320.72 307.5,322.5C 304.67,322.037 302.003,321.371 299.5,320.5 Z"/></g>
<g><path style="opacity:1" fill="#1d3645" d="M 233.5,316.5 C 235.167,316.5 236.833,316.5 238.5,316.5C 251.187,316.318 263.853,316.651 276.5,317.5C 279.167,317.5 281.833,317.5 284.5,317.5C 284.918,318.222 285.584,318.722 286.5,319C 289.482,319.498 292.482,319.665 295.5,319.5C 296.833,319.833 298.167,320.167 299.5,320.5C 302.003,321.371 304.67,322.037 307.5,322.5C 309.167,322.5 310.833,322.5 312.5,322.5C 314.242,323.957 316.242,325.124 318.5,326C 319.793,326.49 321.127,326.657 322.5,326.5C 323.635,328.213 325.302,328.88 327.5,328.5C 328.287,330.104 329.62,330.771 331.5,330.5C 332.15,332.435 332.483,334.435 332.5,336.5C 327.019,335.112 321.352,334.446 315.5,334.5C 310.768,332.739 305.768,331.739 300.5,331.5C 299.081,330.549 297.415,330.216 295.5,330.5C 292.781,329.087 289.781,328.42 286.5,328.5C 275.016,327.082 263.35,326.082 251.5,325.5C 248.638,324.319 245.638,324.319 242.5,325.5C 238.486,325.334 234.486,325.501 230.5,326C 229.584,326.278 228.918,326.778 228.5,327.5C 225.302,326.964 222.635,327.631 220.5,329.5C 219.167,329.5 217.833,329.5 216.5,329.5C 212.838,329.723 209.505,330.723 206.5,332.5C 200.429,333.258 194.429,334.424 188.5,336C 187.944,336.383 187.611,336.883 187.5,337.5C 184.5,337.5 181.5,337.5 178.5,337.5C 178.194,334.615 178.527,331.948 179.5,329.5C 183.948,329.066 187.948,327.732 191.5,325.5C 193.435,324.85 195.435,324.517 197.5,324.5C 204.233,322.833 210.9,321.166 217.5,319.5C 218.492,319.672 219.158,319.338 219.5,318.5C 224.338,318.089 229.005,317.422 233.5,316.5 Z"/></g>
<g><path style="opacity:1" fill="#92999e" d="M 300.5,331.5 C 305.768,331.739 310.768,332.739 315.5,334.5C 312.813,334.664 310.146,334.497 307.5,334C 305.167,332.957 302.834,332.124 300.5,331.5 Z"/></g>
<g><path style="opacity:1" fill="#435460" d="M 267.5,332.5 C 269.5,332.5 271.5,332.5 273.5,332.5C 275.833,333.167 278.167,333.833 280.5,334.5C 276.486,334.666 272.486,334.499 268.5,334C 267.944,333.617 267.611,333.117 267.5,332.5 Z"/></g>
<g><path style="opacity:1" fill="#445561" d="M 261.5,331.5 C 263.735,331.205 265.735,331.539 267.5,332.5C 256.15,332.407 244.817,332.741 233.5,333.5C 233.5,333.167 233.5,332.833 233.5,332.5C 242.812,331.723 252.146,331.39 261.5,331.5 Z"/></g>
<g><path style="opacity:1" fill="#a7acaf" d="M 239.5,330.5 C 242.167,330.5 244.833,330.5 247.5,330.5C 252.363,330.181 257.03,330.514 261.5,331.5C 252.146,331.39 242.812,331.723 233.5,332.5C 235.5,331.833 237.5,331.167 239.5,330.5 Z"/></g>
<g><path style="opacity:1" fill="#828b92" d="M 216.5,329.5 C 213.495,331.277 210.162,332.277 206.5,332.5C 209.505,330.723 212.838,329.723 216.5,329.5 Z"/></g>
<g><path style="opacity:1" fill="#808a8f" d="M 286.5,328.5 C 289.781,328.42 292.781,329.087 295.5,330.5C 293.833,330.5 292.167,330.5 290.5,330.5C 289.167,329.833 287.833,329.167 286.5,328.5 Z"/></g>
<g><path style="opacity:1" fill="#d5d4d1" d="M 251.5,325.5 C 263.35,326.082 275.016,327.082 286.5,328.5C 287.833,329.167 289.167,329.833 290.5,330.5C 282.856,329.52 275.189,329.353 267.5,330C 269.723,330.566 271.723,331.4 273.5,332.5C 271.5,332.5 269.5,332.5 267.5,332.5C 265.735,331.539 263.735,331.205 261.5,331.5C 257.03,330.514 252.363,330.181 247.5,330.5C 254.37,329.792 261.37,328.958 268.5,328C 256.171,327.5 243.838,327.333 231.5,327.5C 234.962,326.518 238.629,326.185 242.5,326.5C 245.545,326.492 248.545,326.159 251.5,325.5 Z"/></g>
<g><path style="opacity:1" fill="#f8f5ed" d="M 231.5,327.5 C 243.838,327.333 256.171,327.5 268.5,328C 261.37,328.958 254.37,329.792 247.5,330.5C 244.833,330.5 242.167,330.5 239.5,330.5C 235.154,330.666 230.821,330.499 226.5,330C 227.416,329.722 228.082,329.222 228.5,328.5C 229.791,328.737 230.791,328.404 231.5,327.5 Z"/></g>
<g><path style="opacity:1" fill="#969da0" d="M 228.5,327.5 C 229.5,327.5 230.5,327.5 231.5,327.5C 230.791,328.404 229.791,328.737 228.5,328.5C 225.833,328.833 223.167,329.167 220.5,329.5C 222.635,327.631 225.302,326.964 228.5,327.5 Z"/></g>
<g><path style="opacity:1" fill="#a3a9a8" d="M 251.5,325.5 C 248.545,326.159 245.545,326.492 242.5,326.5C 242.5,326.167 242.5,325.833 242.5,325.5C 245.638,324.319 248.638,324.319 251.5,325.5 Z"/></g>
<g><path style="opacity:1" fill="#5f6c75" d="M 242.5,325.5 C 242.5,325.833 242.5,326.167 242.5,326.5C 238.629,326.185 234.962,326.518 231.5,327.5C 230.5,327.5 229.5,327.5 228.5,327.5C 228.918,326.778 229.584,326.278 230.5,326C 234.486,325.501 238.486,325.334 242.5,325.5 Z"/></g>
<g><path style="opacity:1" fill="#6f7a83" d="M 390.5,316.5 C 387.09,318.868 383.424,320.868 379.5,322.5C 382.435,319.391 386.102,317.391 390.5,316.5 Z"/></g>
<g><path style="opacity:1" fill="#b8bbbc" d="M 295.5,319.5 C 295.5,319.167 295.5,318.833 295.5,318.5C 297.898,318.259 299.898,318.926 301.5,320.5C 300.833,320.5 300.167,320.5 299.5,320.5C 298.167,320.167 296.833,319.833 295.5,319.5 Z"/></g>
<g><path style="opacity:1" fill="#616d75" d="M 284.5,317.5 C 287.167,317.833 289.833,318.167 292.5,318.5C 293.5,318.5 294.5,318.5 295.5,318.5C 295.5,318.833 295.5,319.167 295.5,319.5C 292.482,319.665 289.482,319.498 286.5,319C 285.584,318.722 284.918,318.222 284.5,317.5 Z"/></g>
<g><path style="opacity:1" fill="#a3a8ab" d="M 219.5,318.5 C 219.158,319.338 218.492,319.672 217.5,319.5C 215.435,319.517 213.435,319.85 211.5,320.5C 211.611,319.883 211.944,319.383 212.5,319C 214.81,318.503 217.143,318.337 219.5,318.5 Z"/></g>
<g><path style="opacity:1" fill="#bfc1c1" d="M 276.5,317.5 C 276.5,317.167 276.5,316.833 276.5,316.5C 281.179,316.334 285.845,316.501 290.5,317C 291.416,317.278 292.082,317.778 292.5,318.5C 289.833,318.167 287.167,317.833 284.5,317.5C 281.833,317.5 279.167,317.5 276.5,317.5 Z"/></g>
<g><path style="opacity:1" fill="#a9adb0" d="M 233.5,316.5 C 229.005,317.422 224.338,318.089 219.5,318.5C 220.263,317.732 221.263,317.232 222.5,317C 226.152,316.501 229.818,316.335 233.5,316.5 Z"/></g>
<g><path style="opacity:1" fill="#6f777d" d="M 238.5,316.5 C 248.653,315.506 258.986,315.172 269.5,315.5C 272.059,315.198 274.393,315.532 276.5,316.5C 276.5,316.833 276.5,317.167 276.5,317.5C 263.853,316.651 251.187,316.318 238.5,316.5 Z"/></g>
<g><path style="opacity:1" fill="#828b93" d="M 396.5,313.5 C 396.027,314.906 395.027,315.573 393.5,315.5C 393.973,314.094 394.973,313.427 396.5,313.5 Z"/></g>
<g><path style="opacity:1" fill="#cfcecd" d="M 269.5,315.5 C 258.986,315.172 248.653,315.506 238.5,316.5C 236.833,316.5 235.167,316.5 233.5,316.5C 233.918,315.778 234.584,315.278 235.5,315C 247.008,314.174 258.341,314.341 269.5,315.5 Z"/></g>
<g><path style="opacity:1" fill="#596872" d="M 407.5,309.5 C 404.927,311.616 401.927,312.95 398.5,313.5C 398.833,312.833 399.167,312.167 399.5,311.5C 402.167,310.833 404.833,310.167 407.5,309.5 Z"/></g>
<g><path style="opacity:1" fill="#5a666e" d="M 315.5,309.5 C 316.885,310.302 316.718,310.969 315,311.5C 314.235,311.43 313.735,311.097 313.5,310.5C 314.492,310.672 315.158,310.338 315.5,309.5 Z"/></g>
<g><path style="opacity:1" fill="#7c858c" d="M 220.5,304.5 C 219.5,305.167 218.5,305.833 217.5,306.5C 212.523,307.607 207.523,308.607 202.5,309.5C 202.611,308.883 202.944,308.383 203.5,308C 209.062,306.387 214.729,305.221 220.5,304.5 Z"/></g>
<g><path style="opacity:1" fill="#69757d" d="M 286.5,304.5 C 289.228,304.171 291.562,304.837 293.5,306.5C 290.848,306.59 288.515,305.924 286.5,304.5 Z"/></g>
<g><path style="opacity:1" fill="#d4d5d2" d="M 234.5,301.5 C 235.434,302.568 235.768,303.901 235.5,305.5C 229.464,305.36 223.464,305.693 217.5,306.5C 218.5,305.833 219.5,305.167 220.5,304.5C 221.167,304.5 221.833,304.5 222.5,304.5C 226.983,304.468 230.983,303.468 234.5,301.5 Z"/></g>
<g><path style="opacity:1" fill="#d4d4d1" d="M 420.5,302.5 C 416.395,305.001 412.062,307.335 407.5,309.5C 404.833,310.167 402.167,310.833 399.5,311.5C 400.263,310.732 401.263,310.232 402.5,310C 401.346,309.086 401.513,308.253 403,307.5C 405.432,308.45 407.932,308.45 410.5,307.5C 410.5,306.167 410.5,304.833 410.5,303.5C 413.902,303.658 417.236,303.324 420.5,302.5 Z"/></g>
<g><path style="opacity:1" fill="#858d93" d="M 200.5,299.5 C 200.186,302.489 198.852,304.822 196.5,306.5C 197.397,303.787 198.73,301.454 200.5,299.5 Z"/></g>
<g><path style="opacity:1" fill="#6d7880" d="M 233.5,300.5 C 234.167,300.5 234.5,300.833 234.5,301.5C 230.983,303.468 226.983,304.468 222.5,304.5C 222.611,303.883 222.944,303.383 223.5,303C 227.311,303.083 230.645,302.25 233.5,300.5 Z"/></g>
<g><path style="opacity:1" fill="#ecebe4" d="M 178.5,345.5 C 176.435,345.517 174.435,345.85 172.5,346.5C 171.531,285.846 171.197,225.179 171.5,164.5C 171.337,162.143 171.503,159.81 172,157.5C 172.36,159.608 173.027,161.608 174,163.5C 174.5,223.499 174.667,283.499 174.5,343.5C 176.483,343.157 177.817,343.824 178.5,345.5 Z"/></g>
<g><path style="opacity:1" fill="#878e94" d="M 280.5,292.5 C 279.799,295.983 278.799,299.316 277.5,302.5C 280.228,302.171 282.562,302.837 284.5,304.5C 281.482,304.296 278.482,303.963 275.5,303.5C 276.804,299.573 278.47,295.906 280.5,292.5 Z"/></g>
<g><path style="opacity:1" fill="#626f78" d="M 205.5,286.5 C 205.855,290.077 204.855,293.077 202.5,295.5C 203.079,292.294 204.079,289.294 205.5,286.5 Z"/></g>
<g><path style="opacity:1" fill="#9b9c9d" d="M 361.5,144.5 C 361.634,146.292 361.301,147.958 360.5,149.5C 359.833,179.831 359.5,210.331 359.5,241C 359.5,271.841 360.167,302.341 361.5,332.5C 360.791,333.404 359.791,333.737 358.5,333.5C 358.829,277.095 358.496,220.762 357.5,164.5C 357.211,158.17 358.211,152.17 360.5,146.5C 360.328,145.508 360.662,144.842 361.5,144.5 Z"/></g>
<g><path style="opacity:1" fill="#9aa0a3" d="M 228.5,286.5 C 229.117,286.611 229.617,286.944 230,287.5C 230.497,289.81 230.663,292.143 230.5,294.5C 229.715,292.626 229.048,290.626 228.5,288.5C 228.5,287.833 228.5,287.167 228.5,286.5 Z"/></g>
<g><path style="opacity:1" fill="#c5c7c8" d="M 305.5,281.5 C 306.725,282.152 307.392,283.319 307.5,285C 307.917,287.498 308.251,289.998 308.5,292.5C 306.861,289.13 305.861,285.463 305.5,281.5 Z"/></g>
<g><path style="opacity:1" fill="#d6d7d6" d="M 281.5,253.5 C 281.833,253.5 282.167,253.5 282.5,253.5C 282.667,265.171 282.5,276.838 282,288.5C 281.722,289.416 281.222,290.082 280.5,290.5C 281.418,278.197 281.752,265.864 281.5,253.5 Z"/></g>
<g><path style="opacity:1" fill="#061e2f" d="M 283.5,253.5 C 284.829,258.96 285.496,264.793 285.5,271C 285.167,276.833 284.833,282.667 284.5,288.5C 283.501,276.852 283.168,265.186 283.5,253.5 Z"/></g>
<g><path style="opacity:1" fill="#092232" d="M 341.5,158.5 C 342.833,189.66 343.5,221.16 343.5,253C 343.5,284.84 342.833,316.34 341.5,347.5C 341.5,284.5 341.5,221.5 341.5,158.5 Z"/></g>
<g><path style="opacity:1" fill="#959b9e" d="M 257.5,246.5 C 257.38,247.586 256.713,248.253 255.5,248.5C 254.584,248.457 253.917,248.124 253.5,247.5C 254.959,247.567 256.292,247.234 257.5,246.5 Z"/></g>
<g><path style="opacity:1" fill="#b4b9b9" d="M 267.5,237.5 C 264.769,241.234 261.436,244.234 257.5,246.5C 260.231,242.766 263.564,239.766 267.5,237.5 Z"/></g>
<g><path style="opacity:1" fill="#c4c4c2" d="M 232.5,231.5 C 230.842,241.292 229.842,251.292 229.5,261.5C 229.5,251.167 229.5,240.833 229.5,230.5C 230.791,230.263 231.791,230.596 232.5,231.5 Z"/></g>
<g><path style="opacity:1" fill="#6d7c85" d="M 208.5,200.5 C 208.833,200.5 209.167,200.5 209.5,200.5C 210.483,215.422 210.816,230.422 210.5,245.5C 210.802,248.059 210.468,250.393 209.5,252.5C 209.829,238.656 209.496,224.99 208.5,211.5C 208.5,207.833 208.5,204.167 208.5,200.5 Z"/></g>
<g><path style="opacity:1" fill="#0e2838" d="M 227.5,230.5 C 227.5,249.833 227.5,269.167 227.5,288.5C 226.778,288.082 226.278,287.416 226,286.5C 225.333,267.5 225.333,248.5 226,229.5C 226.383,230.056 226.883,230.389 227.5,230.5 Z"/></g>
<g><path style="opacity:1" fill="#4b5a65" d="M 236.5,232.5 C 234.901,232.768 233.568,232.434 232.5,231.5C 231.791,230.596 230.791,230.263 229.5,230.5C 229.5,240.833 229.5,251.167 229.5,261.5C 228.507,269.65 228.174,277.983 228.5,286.5C 228.5,287.167 228.5,287.833 228.5,288.5C 228.167,288.5 227.833,288.5 227.5,288.5C 227.5,269.167 227.5,249.833 227.5,230.5C 229.573,229.862 231.573,228.862 233.5,227.5C 234.275,229.396 235.275,231.063 236.5,232.5 Z"/></g>
<g><path style="opacity:1" fill="#c2c2c1" d="M 277.5,228.5 C 278.833,228.5 280.167,228.5 281.5,228.5C 281.5,236.833 281.5,245.167 281.5,253.5C 280.833,245.657 280.167,237.657 279.5,229.5C 275.192,231.826 271.192,234.493 267.5,237.5C 270.237,233.759 273.57,230.759 277.5,228.5 Z"/></g>
<g><path style="opacity:1" fill="#626e76" d="M 338.5,150.5 C 338.972,152.531 339.972,154.198 341.5,155.5C 341.5,156.5 341.5,157.5 341.5,158.5C 341.5,221.5 341.5,284.5 341.5,347.5C 340.167,348.833 338.833,348.833 337.5,347.5C 338.5,347.5 339.5,347.5 340.5,347.5C 340.832,284.331 340.499,221.331 339.5,158.5C 338.527,156.052 338.194,153.385 338.5,150.5 Z"/></g>
<g><path style="opacity:1" fill="#787f86" d="M 282.5,253.5 C 282.167,253.5 281.833,253.5 281.5,253.5C 281.5,245.167 281.5,236.833 281.5,228.5C 280.167,228.5 278.833,228.5 277.5,228.5C 278.78,227.069 280.447,226.402 282.5,226.5C 282.5,235.5 282.5,244.5 282.5,253.5 Z"/></g>
<g><path style="opacity:1" fill="#d5d8d6" d="M 339.5,158.5 C 340.499,221.331 340.832,284.331 340.5,347.5C 339.5,347.5 338.5,347.5 337.5,347.5C 335.833,346.833 334.167,346.167 332.5,345.5C 334.792,345.244 336.959,345.577 339,346.5C 339.5,283.834 339.667,221.168 339.5,158.5 Z"/></g>
<g><path style="opacity:1" fill="#53616c" d="M 264.5,216.5 C 262.45,218.547 260.117,220.214 257.5,221.5C 259.023,218.636 261.357,216.969 264.5,216.5 Z"/></g>
<g><path style="opacity:1" fill="#9ea4a9" d="M 249.5,217.5 C 251.027,217.427 252.027,218.094 252.5,219.5C 250.973,219.573 249.973,218.906 249.5,217.5 Z"/></g>
<g><path style="opacity:1" fill="#5f6a75" d="M 170.5,164.5 C 170.833,164.5 171.167,164.5 171.5,164.5C 171.197,225.179 171.531,285.846 172.5,346.5C 171.475,343.026 170.808,339.36 170.5,335.5C 170.5,278.5 170.5,221.5 170.5,164.5 Z"/></g>
<g><path style="opacity:1" fill="#c0c5c5" d="M 208.5,211.5 C 209.496,224.99 209.829,238.656 209.5,252.5C 208.833,261.5 208.167,270.5 207.5,279.5C 207.907,256.835 208.241,234.168 208.5,211.5 Z"/></g>
<g><path style="opacity:1" fill="#aab0b2" d="M 241.5,213.5 C 245.034,213.361 247.701,214.694 249.5,217.5C 246.515,216.674 243.849,215.341 241.5,213.5 Z"/></g>
<g><path style="opacity:1" fill="#0e293a" d="M 210.5,245.5 C 210.816,230.422 210.483,215.422 209.5,200.5C 209.334,194.158 209.5,187.825 210,181.5C 210.333,187.5 210.667,193.5 211,199.5C 211.85,200.424 212.85,200.424 214,199.5C 217.119,201.966 216.619,203.632 212.5,204.5C 212.667,218.504 212.5,232.504 212,246.5C 211.617,245.944 211.117,245.611 210.5,245.5 Z"/></g>
<g><path style="opacity:1" fill="#767f87" d="M 275.5,211.5 C 274.329,212.345 272.995,213.011 271.5,213.5C 272.183,211.824 273.517,211.157 275.5,211.5 Z"/></g>
<g><path style="opacity:1" fill="#91979e" d="M 280.5,209.5 C 279.07,210.537 277.403,211.204 275.5,211.5C 276.635,209.787 278.302,209.12 280.5,209.5 Z"/></g>
<g><path style="opacity:1" fill="#061523" d="M 254.5,190.5 C 256.436,194.715 257.103,199.381 256.5,204.5C 256.167,205.167 255.833,205.833 255.5,206.5C 255.782,201.341 255.449,196.008 254.5,190.5 Z"/></g>
<g><path style="opacity:1" fill="#969ca0" d="M 253.5,192.5 C 252.167,196.5 252.167,200.5 253.5,204.5C 252.883,204.389 252.383,204.056 252,203.5C 251.333,200.167 251.333,196.833 252,193.5C 252.383,192.944 252.883,192.611 253.5,192.5 Z"/></g>
<g><path style="opacity:1" fill="#253a48" d="M 253.5,190.5 C 253.833,190.5 254.167,190.5 254.5,190.5C 255.449,196.008 255.782,201.341 255.5,206.5C 255.44,207.043 255.107,207.376 254.5,207.5C 253.614,206.675 253.281,205.675 253.5,204.5C 252.167,200.5 252.167,196.5 253.5,192.5C 253.5,191.833 253.5,191.167 253.5,190.5 Z"/></g>
<g><path style="opacity:1" fill="#95989b" d="M 233.5,170.5 C 232.968,172.63 232.135,174.63 231,176.5C 230.5,187.495 230.333,198.495 230.5,209.5C 229.176,197.993 229.176,186.327 230.5,174.5C 231.057,172.668 232.057,171.335 233.5,170.5 Z"/></g>
<g><path style="opacity:1" fill="#b2b6b8" d="M 306.5,175.5 C 305.965,186.353 304.965,197.019 303.5,207.5C 303.902,198.165 304.402,188.832 305,179.5C 305.21,177.942 305.71,176.609 306.5,175.5 Z"/></g>
<g><path style="opacity:1" fill="#7b8388" d="M 256.5,204.5 C 257.103,199.381 256.436,194.715 254.5,190.5C 254.167,190.5 253.833,190.5 253.5,190.5C 254.077,188.348 255.244,188.015 257,189.5C 257.816,194.684 257.65,199.684 256.5,204.5 Z"/></g>
<g><path style="opacity:1" fill="#c2c5c3" d="M 422.5,118.5 C 424.496,178.824 425.163,239.491 424.5,300.5C 424.167,300.5 423.833,300.5 423.5,300.5C 423.5,240.5 423.5,180.5 423.5,120.5C 421.708,120.366 420.042,120.699 418.5,121.5C 418.5,121.167 418.5,120.833 418.5,120.5C 419.833,119.833 421.167,119.167 422.5,118.5 Z"/></g>
<g><path style="opacity:1" fill="#abacaf" d="M 280.5,179.5 C 280.833,179.5 281.167,179.5 281.5,179.5C 282.639,189.089 282.806,198.756 282,208.5C 281.617,209.056 281.117,209.389 280.5,209.5C 280.5,199.5 280.5,189.5 280.5,179.5 Z"/></g>
<g><path style="opacity:1" fill="#a8aeb1" d="M 204.5,175.5 C 205.989,177.116 206.989,179.116 207.5,181.5C 208.496,187.798 208.83,194.132 208.5,200.5C 208.175,192.048 206.842,183.714 204.5,175.5 Z"/></g>
<g><path style="opacity:1" fill="#78848b" d="M 278.5,171.5 C 280.38,173.755 281.38,176.422 281.5,179.5C 281.167,179.5 280.833,179.5 280.5,179.5C 279.361,176.996 278.694,174.33 278.5,171.5 Z"/></g>
<g><path style="opacity:1" fill="#a8adb0" d="M 311.5,169.5 C 310.525,171.795 309.192,173.795 307.5,175.5C 307.684,172.663 309.018,170.663 311.5,169.5 Z"/></g>
<g><path style="opacity:1" fill="#adb4b6" d="M 247.5,154.5 C 243.845,159.821 239.512,164.487 234.5,168.5C 238.127,163.206 242.46,158.539 247.5,154.5 Z"/></g>
<g><path style="opacity:1" fill="#a8aeb0" d="M 185.5,152.5 C 184.939,156.168 183.272,159.168 180.5,161.5C 181.698,158.207 183.365,155.207 185.5,152.5 Z"/></g>
<g><path style="opacity:1" fill="#939a9f" d="M 331.5,150.5 C 332.283,153.509 332.95,156.676 333.5,160C 333.164,161.03 332.497,161.53 331.5,161.5C 331.443,160.391 331.11,159.391 330.5,158.5C 331.473,156.052 331.806,153.385 331.5,150.5 Z"/></g>
<g><path style="opacity:1" fill="#9aa0a4" d="M 293.5,152.5 C 295.027,152.427 296.027,153.094 296.5,154.5C 294.973,154.573 293.973,153.906 293.5,152.5 Z"/></g>
<g><path style="opacity:1" fill="#a1a7ab" d="M 368.5,139.5 C 367.564,140.974 366.23,141.974 364.5,142.5C 365.035,140.554 366.368,139.554 368.5,139.5 Z"/></g>
<g><path style="opacity:1" fill="#c2c4c4" d="M 377.5,135.5 C 375.083,137.937 372.083,139.27 368.5,139.5C 370.712,136.642 373.712,135.309 377.5,135.5 Z"/></g>
<g><path style="opacity:1" fill="#62757d" d="M 422.5,118.5 C 423.209,117.596 424.209,117.263 425.5,117.5C 425.832,178.669 425.499,239.669 424.5,300.5C 425.163,239.491 424.496,178.824 422.5,118.5 Z"/></g>
<g><path style="opacity:1" fill="#91989e" d="M 381.5,133.5 C 380.329,134.345 378.995,135.011 377.5,135.5C 378.183,133.824 379.517,133.157 381.5,133.5 Z"/></g>
<g><path style="opacity:1" fill="#f6f1e8" d="M 423.5,300.5 C 422.5,301.167 421.5,301.833 420.5,302.5C 417.236,303.324 413.902,303.658 410.5,303.5C 410.5,304.833 410.5,306.167 410.5,307.5C 407.932,308.45 405.432,308.45 403,307.5C 401.513,308.253 401.346,309.086 402.5,310C 401.263,310.232 400.263,310.732 399.5,311.5C 399.167,312.167 398.833,312.833 398.5,313.5C 397.833,313.5 397.167,313.5 396.5,313.5C 394.973,313.427 393.973,314.094 393.5,315.5C 392.391,315.557 391.391,315.89 390.5,316.5C 386.102,317.391 382.435,319.391 379.5,322.5C 377.456,323.508 375.456,324.508 373.5,325.5C 369.539,326.479 366.206,328.479 363.5,331.5C 362.508,331.328 361.842,331.662 361.5,332.5C 360.167,302.341 359.5,271.841 359.5,241C 359.5,210.331 359.833,179.831 360.5,149.5C 361.301,147.958 361.634,146.292 361.5,144.5C 362.5,143.833 363.5,143.167 364.5,142.5C 366.23,141.974 367.564,140.974 368.5,139.5C 372.083,139.27 375.083,137.937 377.5,135.5C 378.995,135.011 380.329,134.345 381.5,133.5C 383.801,132.94 386.134,132.44 388.5,132C 389.056,131.617 389.389,131.117 389.5,130.5C 391.558,129.067 393.892,128.4 396.5,128.5C 403.776,127.382 410.443,125.048 416.5,121.5C 417.167,121.5 417.833,121.5 418.5,121.5C 420.042,120.699 421.708,120.366 423.5,120.5C 423.5,180.5 423.5,240.5 423.5,300.5 Z"/></g>
<g><path style="opacity:1" fill="#b5babb" d="M 366.5,155.5 C 366.5,158.5 366.5,161.5 366.5,164.5C 366.337,166.857 366.503,169.19 367,171.5C 368.045,170.627 368.878,169.627 369.5,168.5C 370.11,166.566 371.11,164.899 372.5,163.5C 371.564,166.63 370.23,169.63 368.5,172.5C 367.575,173.562 366.575,173.562 365.5,172.5C 365.5,168.167 365.5,163.833 365.5,159.5C 365.232,157.901 365.566,156.568 366.5,155.5 Z"/></g>
<g><path style="opacity:1" fill="#6b747a" d="M 366.5,164.5 C 367.022,166.219 368.022,167.552 369.5,168.5C 368.878,169.627 368.045,170.627 367,171.5C 366.503,169.19 366.337,166.857 366.5,164.5 Z"/></g>
<g><path style="opacity:1" fill="#fefdf4" d="M 360.5,149.5 C 361.165,151.698 361.832,154.031 362.5,156.5C 363.288,157.77 364.288,158.77 365.5,159.5C 365.5,163.833 365.5,168.167 365.5,172.5C 365.44,173.043 365.107,173.376 364.5,173.5C 363.833,168.833 363.167,164.167 362.5,159.5C 361.667,216.164 361.167,272.83 361,329.5C 360.5,269.501 360.333,209.501 360.5,149.5 Z"/></g>
<g><path style="opacity:1" fill="#b1b6b7" d="M 380.5,155.5 C 378.5,158.167 376.167,160.5 373.5,162.5C 374.833,159.167 377.167,156.833 380.5,155.5 Z"/></g>
<g><path style="opacity:1" fill="#a5a9ab" d="M 395.5,153.5 C 390.637,154.266 385.637,154.932 380.5,155.5C 380.611,154.883 380.944,154.383 381.5,154C 386.155,153.501 390.821,153.334 395.5,153.5 Z"/></g>
<g><path style="opacity:1" fill="#949ba0" d="M 399.5,143.5 C 398.344,145.824 397.344,148.157 396.5,150.5C 395.908,147.369 396.908,145.036 399.5,143.5 Z"/></g>
<g><path style="opacity:1" fill="#717d85" d="M 382.5,140.5 C 379.075,142.87 375.408,144.87 371.5,146.5C 374.422,143.393 378.089,141.393 382.5,140.5 Z"/></g>
<g><path style="opacity:1" fill="#1c3544" d="M 414.5,132.5 C 412.191,132.988 410.191,133.988 408.5,135.5C 405.573,136.757 403.239,138.757 401.5,141.5C 400.5,141.833 399.833,142.5 399.5,143.5C 396.908,145.036 395.908,147.369 396.5,150.5C 395.596,151.209 395.263,152.209 395.5,153.5C 390.821,153.334 386.155,153.501 381.5,154C 380.944,154.383 380.611,154.883 380.5,155.5C 377.167,156.833 374.833,159.167 373.5,162.5C 372.833,162.5 372.5,162.833 372.5,163.5C 371.11,164.899 370.11,166.566 369.5,168.5C 368.022,167.552 367.022,166.219 366.5,164.5C 366.5,161.5 366.5,158.5 366.5,155.5C 366.118,151.28 367.784,148.28 371.5,146.5C 375.408,144.87 379.075,142.87 382.5,140.5C 384.967,140.245 386.967,139.245 388.5,137.5C 388.833,137.5 389.167,137.5 389.5,137.5C 394.294,137.156 398.627,135.823 402.5,133.5C 404.306,132.976 405.972,132.309 407.5,131.5C 410.113,130.565 412.779,130.398 415.5,131C 414.944,131.383 414.611,131.883 414.5,132.5 Z"/></g>
<g><path style="opacity:1" fill="#b8bbbd" d="M 408.5,135.5 C 406.761,138.243 404.427,140.243 401.5,141.5C 403.239,138.757 405.573,136.757 408.5,135.5 Z"/></g>
<g><path style="opacity:1" fill="#939a9f" d="M 388.5,137.5 C 386.967,139.245 384.967,140.245 382.5,140.5C 384.033,138.755 386.033,137.755 388.5,137.5 Z"/></g>
<g><path style="opacity:1" fill="#69757e" d="M 402.5,133.5 C 398.627,135.823 394.294,137.156 389.5,137.5C 393.64,135.668 397.973,134.335 402.5,133.5 Z"/></g>
<g><path style="opacity:1" fill="#b0b5b7" d="M 389.5,130.5 C 389.389,131.117 389.056,131.617 388.5,132C 386.134,132.44 383.801,132.94 381.5,133.5C 381.611,132.883 381.944,132.383 382.5,132C 384.866,131.56 387.199,131.06 389.5,130.5 Z"/></g>
<g><path style="opacity:1" fill="#8d9599" d="M 414.5,132.5 C 414.611,131.883 414.944,131.383 415.5,131C 412.779,130.398 410.113,130.565 407.5,131.5C 407.611,130.883 407.944,130.383 408.5,130C 411.146,129.503 413.813,129.336 416.5,129.5C 416.715,131.179 416.048,132.179 414.5,132.5 Z"/></g>
<g><path style="opacity:1" fill="#c6c8c8" d="M 416.5,121.5 C 410.443,125.048 403.776,127.382 396.5,128.5C 396.611,127.883 396.944,127.383 397.5,127C 402.767,125.196 408.101,123.696 413.5,122.5C 414.391,121.89 415.391,121.557 416.5,121.5 Z"/></g>
<g><path style="opacity:1" fill="#6b7780" d="M 418.5,120.5 C 418.5,120.833 418.5,121.167 418.5,121.5C 417.833,121.5 417.167,121.5 416.5,121.5C 415.391,121.557 414.391,121.89 413.5,122.5C 414.552,120.744 416.219,120.077 418.5,120.5 Z"/></g>
<g><path style="opacity:1" fill="#aeb3b3" d="M 389.5,338.5 C 388.656,340.759 386.989,341.759 384.5,341.5C 385.899,340.11 387.566,339.11 389.5,338.5 Z"/></g>
<g><path style="opacity:1" fill="#9ca3a7" d="M 178.5,345.5 C 178.833,345.5 179.167,345.5 179.5,345.5C 177.863,346.38 176.03,347.046 174,347.5C 173.235,347.43 172.735,347.097 172.5,346.5C 174.435,345.85 176.435,345.517 178.5,345.5 Z"/></g>
<g><path style="opacity:1" fill="#6e7c85" d="M 266.5,350.5 C 260.409,350.211 254.409,350.545 248.5,351.5C 248.167,351.5 247.833,351.5 247.5,351.5C 247.611,350.883 247.944,350.383 248.5,350C 254.681,349.181 260.681,349.347 266.5,350.5 Z"/></g>
<g><path style="opacity:1" fill="#748085" d="M 140.5,351.5 C 143.167,352.167 144.833,353.833 145.5,356.5C 143.5,355.167 141.833,353.5 140.5,351.5 Z"/></g>
<g><path style="opacity:1" fill="#aeb2b3" d="M 247.5,351.5 C 247.833,351.5 248.167,351.5 248.5,351.5C 241.638,352.728 234.638,353.728 227.5,354.5C 229.833,353.833 232.167,353.167 234.5,352.5C 238.768,351.627 243.102,351.294 247.5,351.5 Z"/></g>
<g><path style="opacity:1" fill="#606c75" d="M 278.5,352.5 C 286.845,353.481 295.178,354.981 303.5,357C 304.056,357.383 304.389,357.883 304.5,358.5C 295.68,356.771 287.013,354.771 278.5,352.5 Z"/></g>
<g><path style="opacity:1" fill="#616e77" d="M 234.5,352.5 C 232.167,353.167 229.833,353.833 227.5,354.5C 223.161,356.407 218.495,357.407 213.5,357.5C 220.143,354.702 227.143,353.035 234.5,352.5 Z"/></g>
<g><path style="opacity:1" fill="#a0a6a9" d="M 213.5,357.5 C 208.578,360.021 203.245,361.354 197.5,361.5C 202.525,359.389 207.858,358.056 213.5,357.5 Z"/></g>
<g><path style="opacity:1" fill="#727c84" d="M 309.5,359.5 C 317.74,361.34 325.74,363.673 333.5,366.5C 325.806,364.861 318.14,363.027 310.5,361C 309.944,360.617 309.611,360.117 309.5,359.5 Z"/></g>
<g><path style="opacity:1" fill="#b5b8b9" d="M 364.5,358.5 C 362.984,361.533 360.984,364.2 358.5,366.5C 359.529,363.109 361.529,360.443 364.5,358.5 Z"/></g>
<g><path style="opacity:1" fill="#8e9499" d="M 180.5,367.5 C 178.698,368.458 176.698,369.125 174.5,369.5C 175.99,367.72 177.99,367.054 180.5,367.5 Z"/></g>
<g><path style="opacity:1" fill="#c2c5c4" d="M 169.5,370.5 C 167.758,371.957 165.758,373.124 163.5,374C 161.288,374.789 159.288,374.622 157.5,373.5C 161.486,372.511 165.486,371.511 169.5,370.5 Z"/></g>
<g><path style="opacity:1" fill="#c0c2c1" d="M 343.5,370.5 C 346.024,371.342 348.524,372.342 351,373.5C 352.833,373.481 354.333,372.815 355.5,371.5C 355.126,373.95 353.626,374.95 351,374.5C 347.868,374.022 345.368,372.689 343.5,370.5 Z"/></g>
<g><path style="opacity:1" fill="#f9f5ee" d="M -0.5,396.5 C 170.167,396.5 340.833,396.5 511.5,396.5C 511.5,397.5 511.5,398.5 511.5,399.5C 340.833,399.5 170.167,399.5 -0.5,399.5C -0.5,398.5 -0.5,397.5 -0.5,396.5 Z"/></g>
<g><path style="opacity:0.008" fill="#fff2f2" d="M -0.5,401.5 C 170.167,401.5 340.833,401.5 511.5,401.5C 511.5,402.167 511.5,402.833 511.5,403.5C 340.833,403.5 170.167,403.5 -0.5,403.5C -0.5,402.833 -0.5,402.167 -0.5,401.5 Z"/></g>
</svg>
